solid Default
  facet normal -6.123234e-17 -5.904906e-33 1.000000e+00
    outer loop
      vertex -2.079550e+01 2.686450e+01 3.497800e+01
      vertex -2.079550e+01 -2.686450e+01 3.497800e+01
      vertex -8.760500e+00 -2.686450e+01 3.497800e+01
    endloop
  endfacet
  facet normal -6.123234e-17 -5.904906e-33 1.000000e+00
    outer loop
      vertex -8.760500e+00 2.686450e+01 3.497800e+01
      vertex -2.079550e+01 2.686450e+01 3.497800e+01
      vertex -8.760500e+00 -2.686450e+01 3.497800e+01
    endloop
  endfacet
  facet normal 6.123234e-17 5.904906e-33 -1.000000e+00
    outer loop
      vertex -1.626150e+01 -2.679650e+01 0.000000e+00
      vertex -2.072750e+01 -2.679650e+01 0.000000e+00
      vertex -2.072750e+01 -2.338650e+01 0.000000e+00
    endloop
  endfacet
  facet normal 6.123234e-17 5.904906e-33 -1.000000e+00
    outer loop
      vertex -1.626150e+01 -2.679650e+01 0.000000e+00
      vertex -2.072750e+01 -2.338650e+01 0.000000e+00
      vertex -1.626150e+01 -2.338650e+01 0.000000e+00
    endloop
  endfacet
  facet normal 6.123234e-17 5.904906e-33 -1.000000e+00
    outer loop
      vertex -1.626150e+01 2.338550e+01 0.000000e+00
      vertex -2.072750e+01 2.338550e+01 0.000000e+00
      vertex -2.072750e+01 2.679550e+01 0.000000e+00
    endloop
  endfacet
  facet normal 6.123234e-17 5.904906e-33 -1.000000e+00
    outer loop
      vertex -1.626150e+01 2.338550e+01 0.000000e+00
      vertex -2.072750e+01 2.679550e+01 0.000000e+00
      vertex -1.626150e+01 2.679550e+01 0.000000e+00
    endloop
  endfacet
  facet normal 6.123234e-17 5.904906e-33 -1.000000e+00
    outer loop
      vertex -8.760500e+00 -2.338650e+01 0.000000e+00
      vertex 2.079550e+01 -2.338650e+01 3.552714e-15
      vertex 2.079550e+01 -2.679650e+01 3.552714e-15
    endloop
  endfacet
  facet normal 6.123234e-17 5.904906e-33 -1.000000e+00
    outer loop
      vertex -8.760500e+00 -2.338650e+01 0.000000e+00
      vertex 2.079550e+01 -2.679650e+01 3.552714e-15
      vertex -8.760500e+00 -2.679650e+01 0.000000e+00
    endloop
  endfacet
  facet normal 3.061617e-16 1.000000e+00 2.465190e-32
    outer loop
      vertex 1.840850e+01 -2.338650e+01 9.483001e+00
      vertex 2.079550e+01 -2.338650e+01 1.193300e+01
      vertex 1.919350e+01 -2.338650e+01 8.309000e+00
    endloop
  endfacet
  facet normal 6.123234e-17 5.904906e-33 -1.000000e+00
    outer loop
      vertex -8.760500e+00 2.679550e+01 0.000000e+00
      vertex 2.079550e+01 2.679550e+01 3.552714e-15
      vertex 2.079550e+01 2.338550e+01 3.552714e-15
    endloop
  endfacet
  facet normal 6.123234e-17 5.904906e-33 -1.000000e+00
    outer loop
      vertex -8.760500e+00 2.679550e+01 0.000000e+00
      vertex 2.079550e+01 2.338550e+01 3.552714e-15
      vertex -8.760500e+00 2.338550e+01 0.000000e+00
    endloop
  endfacet
  facet normal 3.061617e-16 1.000000e+00 2.465190e-32
    outer loop
      vertex 1.723450e+01 -2.338650e+01 1.026800e+01
      vertex 2.079550e+01 -2.338650e+01 1.193300e+01
      vertex 1.840850e+01 -2.338650e+01 9.483001e+00
    endloop
  endfacet
  facet normal 6.123234e-17 5.904906e-33 -1.000000e+00
    outer loop
      vertex -1.626150e+01 2.686450e+01 0.000000e+00
      vertex -8.760500e+00 2.686450e+01 0.000000e+00
      vertex -8.760500e+00 2.679550e+01 0.000000e+00
    endloop
  endfacet
  facet normal 6.123234e-17 5.904906e-33 -1.000000e+00
    outer loop
      vertex -8.760500e+00 2.338550e+01 0.000000e+00
      vertex -1.626150e+01 2.338550e+01 0.000000e+00
      vertex -8.760500e+00 2.679550e+01 0.000000e+00
    endloop
  endfacet
  facet normal 6.123234e-17 5.904906e-33 -1.000000e+00
    outer loop
      vertex -1.626150e+01 2.338550e+01 0.000000e+00
      vertex -1.626150e+01 2.679550e+01 0.000000e+00
      vertex -8.760500e+00 2.679550e+01 0.000000e+00
    endloop
  endfacet
  facet normal 6.123234e-17 5.904906e-33 -1.000000e+00
    outer loop
      vertex -1.626150e+01 2.686450e+01 0.000000e+00
      vertex -8.760500e+00 2.679550e+01 0.000000e+00
      vertex -1.626150e+01 2.679550e+01 0.000000e+00
    endloop
  endfacet
  facet normal 6.123234e-17 5.904906e-33 -1.000000e+00
    outer loop
      vertex -1.626150e+01 2.338550e+01 0.000000e+00
      vertex -8.760500e+00 2.338550e+01 0.000000e+00
      vertex -8.760500e+00 -2.338650e+01 0.000000e+00
    endloop
  endfacet
  facet normal 6.123234e-17 5.904906e-33 -1.000000e+00
    outer loop
      vertex -1.626150e+01 -2.686450e+01 0.000000e+00
      vertex -1.626150e+01 -2.679650e+01 0.000000e+00
      vertex -8.760500e+00 -2.679650e+01 0.000000e+00
    endloop
  endfacet
  facet normal 6.123234e-17 5.904906e-33 -1.000000e+00
    outer loop
      vertex -8.760500e+00 -2.686450e+01 0.000000e+00
      vertex -1.626150e+01 -2.686450e+01 0.000000e+00
      vertex -8.760500e+00 -2.679650e+01 0.000000e+00
    endloop
  endfacet
  facet normal 6.123234e-17 5.904906e-33 -1.000000e+00
    outer loop
      vertex -8.760500e+00 -2.338650e+01 0.000000e+00
      vertex -8.760500e+00 -2.679650e+01 0.000000e+00
      vertex -1.626150e+01 -2.679650e+01 0.000000e+00
    endloop
  endfacet
  facet normal 6.123234e-17 5.904906e-33 -1.000000e+00
    outer loop
      vertex -1.626150e+01 -2.679650e+01 0.000000e+00
      vertex -1.626150e+01 -2.338650e+01 0.000000e+00
      vertex -8.760500e+00 -2.338650e+01 0.000000e+00
    endloop
  endfacet
  facet normal 6.123234e-17 5.904906e-33 -1.000000e+00
    outer loop
      vertex -1.626150e+01 2.338550e+01 0.000000e+00
      vertex -8.760500e+00 -2.338650e+01 0.000000e+00
      vertex -1.626150e+01 -2.338650e+01 0.000000e+00
    endloop
  endfacet
  facet normal 3.061617e-16 1.000000e+00 2.465190e-32
    outer loop
      vertex -8.760500e+00 -2.338650e+01 1.193300e+01
      vertex 2.079550e+01 -2.338650e+01 1.193300e+01
      vertex 1.584950e+01 -2.338650e+01 1.054300e+01
    endloop
  endfacet
  facet normal 6.123234e-17 5.904906e-33 -1.000000e+00
    outer loop
      vertex -1.633389e+01 2.686450e+01 1.465900e+01
      vertex -1.626150e+01 2.686450e+01 1.465900e+01
      vertex -1.633389e+01 -2.686450e+01 1.465900e+01
    endloop
  endfacet
  facet normal 6.123234e-17 5.904906e-33 -1.000000e+00
    outer loop
      vertex -1.626150e+01 2.686450e+01 1.465900e+01
      vertex -1.626150e+01 -2.686450e+01 1.465900e+01
      vertex -1.633389e+01 -2.686450e+01 1.465900e+01
    endloop
  endfacet
  facet normal 3.061617e-16 1.000000e+00 2.465190e-32
    outer loop
      vertex 1.446450e+01 -2.338650e+01 1.026800e+01
      vertex -8.760500e+00 -2.338650e+01 1.193300e+01
      vertex 1.584950e+01 -2.338650e+01 1.054300e+01
    endloop
  endfacet
  facet normal 3.061617e-16 1.000000e+00 2.465190e-32
    outer loop
      vertex 1.723450e+01 -2.338650e+01 1.026800e+01
      vertex 1.584950e+01 -2.338650e+01 1.054300e+01
      vertex 2.079550e+01 -2.338650e+01 1.193300e+01
    endloop
  endfacet
  facet normal -1.000000e+00 3.061617e-16 -6.123234e-17
    outer loop
      vertex -2.079550e+01 2.686450e+01 3.497800e+01
      vertex -2.079550e+01 2.686450e+01 2.220528e+01
      vertex -2.079550e+01 2.224675e+01 2.220521e+01
    endloop
  endfacet
  facet normal -1.000000e+00 3.061617e-16 -6.123234e-17
    outer loop
      vertex -2.079550e+01 -2.293037e+01 2.220521e+01
      vertex -2.079550e+01 -2.686450e+01 3.497800e+01
      vertex -2.079550e+01 2.224675e+01 2.220521e+01
    endloop
  endfacet
  facet normal -1.000000e+00 3.061617e-16 -6.123234e-17
    outer loop
      vertex -2.079550e+01 -2.686450e+01 2.220527e+01
      vertex -2.079550e+01 -2.686450e+01 3.497800e+01
      vertex -2.079550e+01 -2.293037e+01 2.220521e+01
    endloop
  endfacet
  facet normal -1.000000e+00 3.061617e-16 -6.123234e-17
    outer loop
      vertex -2.079550e+01 2.686450e+01 3.497800e+01
      vertex -2.079550e+01 2.224675e+01 2.220521e+01
      vertex -2.079550e+01 -2.686450e+01 3.497800e+01
    endloop
  endfacet
  facet normal 3.061617e-16 1.000000e+00 2.465190e-32
    outer loop
      vertex 1.329050e+01 -2.338650e+01 9.483001e+00
      vertex -8.760500e+00 -2.338650e+01 1.193300e+01
      vertex 1.446450e+01 -2.338650e+01 1.026800e+01
    endloop
  endfacet
  facet normal -3.061617e-16 -1.000000e+00 -2.465190e-32
    outer loop
      vertex -2.079550e+01 -2.686450e+01 3.497800e+01
      vertex -2.079550e+01 -2.686450e+01 2.220527e+01
      vertex -8.760500e+00 -2.686450e+01 3.497800e+01
    endloop
  endfacet
  facet normal -3.061617e-16 -1.000000e+00 -2.465190e-32
    outer loop
      vertex -2.079550e+01 -2.686450e+01 2.220527e+01
      vertex -1.679285e+01 -2.686450e+01 1.543520e+01
      vertex -8.760500e+00 -2.686450e+01 3.497800e+01
    endloop
  endfacet
  facet normal -3.061617e-16 -1.000000e+00 -2.465190e-32
    outer loop
      vertex -1.626150e+01 -2.686450e+01 1.465900e+01
      vertex -8.760500e+00 -2.686450e+01 3.497800e+01
      vertex -1.679285e+01 -2.686450e+01 1.543520e+01
    endloop
  endfacet
  facet normal -3.061617e-16 -1.000000e+00 -2.465190e-32
    outer loop
      vertex -1.626150e+01 -2.686450e+01 1.465900e+01
      vertex -1.679285e+01 -2.686450e+01 1.543520e+01
      vertex -1.633389e+01 -2.686450e+01 1.465900e+01
    endloop
  endfacet
  facet normal 3.061617e-16 1.000000e+00 2.465190e-32
    outer loop
      vertex 1.250550e+01 -2.338650e+01 8.309000e+00
      vertex -8.760500e+00 -2.338650e+01 1.193300e+01
      vertex 1.329050e+01 -2.338650e+01 9.483001e+00
    endloop
  endfacet
  facet normal 3.061617e-16 1.000000e+00 2.465190e-32
    outer loop
      vertex -1.633389e+01 2.686450e+01 1.465900e+01
      vertex -1.673716e+01 2.686450e+01 1.534101e+01
      vertex -1.626150e+01 2.686450e+01 1.465900e+01
    endloop
  endfacet
  facet normal 3.061617e-16 1.000000e+00 2.465190e-32
    outer loop
      vertex -1.673716e+01 2.686450e+01 1.534101e+01
      vertex -2.079550e+01 2.686450e+01 2.220528e+01
      vertex -8.760500e+00 2.686450e+01 3.497800e+01
    endloop
  endfacet
  facet normal 3.061617e-16 1.000000e+00 2.465190e-32
    outer loop
      vertex -2.079550e+01 2.686450e+01 3.497800e+01
      vertex -8.760500e+00 2.686450e+01 3.497800e+01
      vertex -2.079550e+01 2.686450e+01 2.220528e+01
    endloop
  endfacet
  facet normal 3.061617e-16 1.000000e+00 2.465190e-32
    outer loop
      vertex -8.760500e+00 -2.338650e+01 0.000000e+00
      vertex -8.760500e+00 -2.338650e+01 1.193300e+01
      vertex 1.222950e+01 -2.338650e+01 6.924001e+00
    endloop
  endfacet
  facet normal -8.608067e-01 7.790653e-06 -5.089322e-01
    outer loop
      vertex -1.673716e+01 2.686450e+01 1.534101e+01
      vertex -1.895450e+01 -3.424997e-01 1.909100e+01
      vertex -2.079550e+01 2.224675e+01 2.220521e+01
    endloop
  endfacet
  facet normal -8.608067e-01 7.790653e-06 -5.089322e-01
    outer loop
      vertex -1.673716e+01 2.686450e+01 1.534101e+01
      vertex -2.079550e+01 2.224675e+01 2.220521e+01
      vertex -2.079550e+01 2.686450e+01 2.220528e+01
    endloop
  endfacet
  facet normal 3.061617e-16 1.000000e+00 2.465190e-32
    outer loop
      vertex 1.329050e+01 -2.338650e+01 4.364000e+00
      vertex -8.760500e+00 -2.338650e+01 0.000000e+00
      vertex 1.250550e+01 -2.338650e+01 5.538000e+00
    endloop
  endfacet
  facet normal -8.608314e-01 2.635536e-16 -5.088903e-01
    outer loop
      vertex -1.895450e+01 -3.424997e-01 1.909100e+01
      vertex -2.079550e+01 -2.293037e+01 2.220521e+01
      vertex -2.079550e+01 2.224675e+01 2.220521e+01
    endloop
  endfacet
  facet normal -8.607818e-01 2.635384e-16 -5.089741e-01
    outer loop
      vertex -1.673716e+01 2.686450e+01 1.534101e+01
      vertex -1.633389e+01 2.686450e+01 1.465900e+01
      vertex -1.895450e+01 -3.424997e-01 1.909100e+01
    endloop
  endfacet
  facet normal -8.607818e-01 2.635384e-16 -5.089741e-01
    outer loop
      vertex -1.633389e+01 2.686450e+01 1.465900e+01
      vertex -1.633389e+01 -2.686450e+01 1.465900e+01
      vertex -1.895450e+01 -3.424997e-01 1.909100e+01
    endloop
  endfacet
  facet normal -8.607818e-01 2.635384e-16 -5.089741e-01
    outer loop
      vertex -1.679285e+01 -2.686450e+01 1.543520e+01
      vertex -1.895450e+01 -3.424997e-01 1.909100e+01
      vertex -1.633389e+01 -2.686450e+01 1.465900e+01
    endloop
  endfacet
  facet normal -1.191088e-16 -5.553606e-01 -8.316096e-01
    outer loop
      vertex -1.626150e+01 2.573500e+00 9.455000e+00
      vertex -8.760500e+00 2.573500e+00 9.455000e+00
      vertex -8.760500e+00 1.411500e+00 1.023100e+01
    endloop
  endfacet
  facet normal -1.191088e-16 -5.553606e-01 -8.316096e-01
    outer loop
      vertex -1.626150e+01 2.573500e+00 9.455000e+00
      vertex -8.760500e+00 1.411500e+00 1.023100e+01
      vertex -1.626150e+01 1.411500e+00 1.023100e+01
    endloop
  endfacet
  facet normal -8.608067e-01 -7.791131e-06 -5.089322e-01
    outer loop
      vertex -2.079550e+01 -2.686450e+01 2.220527e+01
      vertex -2.079550e+01 -2.293037e+01 2.220521e+01
      vertex -1.679285e+01 -2.686450e+01 1.543520e+01
    endloop
  endfacet
  facet normal -8.608067e-01 -7.791131e-06 -5.089322e-01
    outer loop
      vertex -1.895450e+01 -3.424997e-01 1.909100e+01
      vertex -1.679285e+01 -2.686450e+01 1.543520e+01
      vertex -2.079550e+01 -2.293037e+01 2.220521e+01
    endloop
  endfacet
  facet normal -6.123234e-17 -5.904906e-33 1.000000e+00
    outer loop
      vertex -1.626150e+01 -2.338650e+01 1.193300e+01
      vertex -2.072750e+01 -2.338650e+01 1.193300e+01
      vertex -2.072750e+01 -2.679650e+01 1.193300e+01
    endloop
  endfacet
  facet normal -6.123234e-17 -5.904906e-33 1.000000e+00
    outer loop
      vertex -1.626150e+01 -2.338650e+01 1.193300e+01
      vertex -2.072750e+01 -2.679650e+01 1.193300e+01
      vertex -1.626150e+01 -2.679650e+01 1.193300e+01
    endloop
  endfacet
  facet normal 3.948316e-19 -1.948760e-01 -9.808279e-01
    outer loop
      vertex -1.626150e+01 1.411500e+00 1.023100e+01
      vertex -8.760500e+00 1.411500e+00 1.023100e+01
      vertex -8.760500e+00 4.250028e-02 1.050300e+01
    endloop
  endfacet
  facet normal 3.948316e-19 -1.948760e-01 -9.808279e-01
    outer loop
      vertex -1.626150e+01 1.411500e+00 1.023100e+01
      vertex -8.760500e+00 4.250028e-02 1.050300e+01
      vertex -1.626150e+01 4.250028e-02 1.050300e+01
    endloop
  endfacet
  facet normal -6.123234e-17 -5.904906e-33 1.000000e+00
    outer loop
      vertex -1.626150e+01 2.679550e+01 1.193300e+01
      vertex -2.072750e+01 2.679550e+01 1.193300e+01
      vertex -2.072750e+01 2.338550e+01 1.193300e+01
    endloop
  endfacet
  facet normal -6.123234e-17 -5.904906e-33 1.000000e+00
    outer loop
      vertex -1.626150e+01 2.679550e+01 1.193300e+01
      vertex -2.072750e+01 2.338550e+01 1.193300e+01
      vertex -1.626150e+01 2.338550e+01 1.193300e+01
    endloop
  endfacet
  facet normal 3.061617e-16 1.000000e+00 2.465190e-32
    outer loop
      vertex 1.222950e+01 -2.338650e+01 6.924001e+00
      vertex 1.250550e+01 -2.338650e+01 5.538000e+00
      vertex -8.760500e+00 -2.338650e+01 0.000000e+00
    endloop
  endfacet
  facet normal 3.061617e-16 1.000000e+00 2.465190e-32
    outer loop
      vertex 1.446450e+01 -2.338650e+01 3.580000e+00
      vertex -8.760500e+00 -2.338650e+01 0.000000e+00
      vertex 1.329050e+01 -2.338650e+01 4.364000e+00
    endloop
  endfacet
  facet normal 3.061617e-16 1.000000e+00 2.465190e-32
    outer loop
      vertex 1.250550e+01 -2.338650e+01 8.309000e+00
      vertex 1.222950e+01 -2.338650e+01 6.924001e+00
      vertex -8.760500e+00 -2.338650e+01 1.193300e+01
    endloop
  endfacet
  facet normal -1.000000e+00 3.061617e-16 -6.123234e-17
    outer loop
      vertex -2.072750e+01 -2.338650e+01 1.193300e+01
      vertex -2.072750e+01 -2.338650e+01 0.000000e+00
      vertex -2.072750e+01 -2.679650e+01 0.000000e+00
    endloop
  endfacet
  facet normal -1.000000e+00 3.061617e-16 -6.123234e-17
    outer loop
      vertex -2.072750e+01 -2.338650e+01 1.193300e+01
      vertex -2.072750e+01 -2.679650e+01 0.000000e+00
      vertex -2.072750e+01 -2.679650e+01 1.193300e+01
    endloop
  endfacet
  facet normal -1.000000e+00 3.061617e-16 -6.123234e-17
    outer loop
      vertex -2.072750e+01 2.679550e+01 1.193300e+01
      vertex -2.072750e+01 2.679550e+01 0.000000e+00
      vertex -2.072750e+01 2.338550e+01 0.000000e+00
    endloop
  endfacet
  facet normal -1.000000e+00 3.061617e-16 -6.123234e-17
    outer loop
      vertex -2.072750e+01 2.679550e+01 1.193300e+01
      vertex -2.072750e+01 2.338550e+01 0.000000e+00
      vertex -2.072750e+01 2.338550e+01 1.193300e+01
    endloop
  endfacet
  facet normal 1.196817e-16 1.947391e-01 -9.808550e-01
    outer loop
      vertex -1.626150e+01 4.250028e-02 1.050300e+01
      vertex -8.760500e+00 4.250028e-02 1.050300e+01
      vertex -8.760500e+00 -1.327500e+00 1.023100e+01
    endloop
  endfacet
  facet normal 1.196817e-16 1.947391e-01 -9.808550e-01
    outer loop
      vertex -1.626150e+01 4.250028e-02 1.050300e+01
      vertex -8.760500e+00 -1.327500e+00 1.023100e+01
      vertex -1.626150e+01 -1.327500e+00 1.023100e+01
    endloop
  endfacet
  facet normal 3.061617e-16 1.000000e+00 2.465190e-32
    outer loop
      vertex 2.079550e+01 -2.338650e+01 3.552714e-15
      vertex -8.760500e+00 -2.338650e+01 0.000000e+00
      vertex 1.446450e+01 -2.338650e+01 3.580000e+00
    endloop
  endfacet
  facet normal 3.061617e-16 1.000000e+00 2.465190e-32
    outer loop
      vertex 2.079550e+01 -2.338650e+01 3.552714e-15
      vertex 1.446450e+01 -2.338650e+01 3.580000e+00
      vertex 1.584950e+01 -2.338650e+01 3.304000e+00
    endloop
  endfacet
  facet normal 3.061617e-16 1.000000e+00 2.465190e-32
    outer loop
      vertex 2.079550e+01 -2.338650e+01 3.552714e-15
      vertex 1.584950e+01 -2.338650e+01 3.304000e+00
      vertex 1.723450e+01 -2.338650e+01 3.580000e+00
    endloop
  endfacet
  facet normal -3.061617e-16 -1.000000e+00 -2.465190e-32
    outer loop
      vertex -1.626150e+01 -2.679650e+01 0.000000e+00
      vertex -1.626150e+01 -2.679650e+01 1.193300e+01
      vertex -2.072750e+01 -2.679650e+01 1.193300e+01
    endloop
  endfacet
  facet normal -3.061617e-16 -1.000000e+00 -2.465190e-32
    outer loop
      vertex -1.626150e+01 -2.679650e+01 0.000000e+00
      vertex -2.072750e+01 -2.679650e+01 1.193300e+01
      vertex -2.072750e+01 -2.679650e+01 0.000000e+00
    endloop
  endfacet
  facet normal 3.061617e-16 1.000000e+00 2.465190e-32
    outer loop
      vertex -2.072750e+01 -2.338650e+01 0.000000e+00
      vertex -2.072750e+01 -2.338650e+01 1.193300e+01
      vertex -1.626150e+01 -2.338650e+01 0.000000e+00
    endloop
  endfacet
  facet normal 3.061617e-16 1.000000e+00 2.465190e-32
    outer loop
      vertex -1.626150e+01 -2.338650e+01 1.193300e+01
      vertex -1.626150e+01 -2.338650e+01 0.000000e+00
      vertex -2.072750e+01 -2.338650e+01 1.193300e+01
    endloop
  endfacet
  facet normal 2.209515e-16 5.553606e-01 -8.316096e-01
    outer loop
      vertex -1.626150e+01 -1.327500e+00 1.023100e+01
      vertex -8.760500e+00 -1.327500e+00 1.023100e+01
      vertex -8.760500e+00 -2.489500e+00 9.455000e+00
    endloop
  endfacet
  facet normal 2.209515e-16 5.553606e-01 -8.316096e-01
    outer loop
      vertex -1.626150e+01 -1.327500e+00 1.023100e+01
      vertex -8.760500e+00 -2.489500e+00 9.455000e+00
      vertex -1.626150e+01 -2.489500e+00 9.455000e+00
    endloop
  endfacet
  facet normal -1.954352e-01 5.983478e-17 9.807166e-01
    outer loop
      vertex 1.723450e+01 -2.679650e+01 3.580000e+00
      vertex 1.723450e+01 -2.338650e+01 3.580000e+00
      vertex 1.584950e+01 -2.338650e+01 3.304000e+00
    endloop
  endfacet
  facet normal -1.954352e-01 5.983478e-17 9.807166e-01
    outer loop
      vertex 1.723450e+01 -2.679650e+01 3.580000e+00
      vertex 1.584950e+01 -2.338650e+01 3.304000e+00
      vertex 1.584950e+01 -2.679650e+01 3.304000e+00
    endloop
  endfacet
  facet normal -3.061617e-16 -1.000000e+00 -2.465190e-32
    outer loop
      vertex -2.072750e+01 2.338550e+01 1.193300e+01
      vertex -2.072750e+01 2.338550e+01 0.000000e+00
      vertex -1.626150e+01 2.338550e+01 1.193300e+01
    endloop
  endfacet
  facet normal -3.061617e-16 -1.000000e+00 -2.465190e-32
    outer loop
      vertex -1.626150e+01 2.338550e+01 0.000000e+00
      vertex -1.626150e+01 2.338550e+01 1.193300e+01
      vertex -2.072750e+01 2.338550e+01 0.000000e+00
    endloop
  endfacet
  facet normal 3.061617e-16 1.000000e+00 2.465190e-32
    outer loop
      vertex -2.072750e+01 2.679550e+01 0.000000e+00
      vertex -2.072750e+01 2.679550e+01 1.193300e+01
      vertex -1.626150e+01 2.679550e+01 0.000000e+00
    endloop
  endfacet
  facet normal 3.061617e-16 1.000000e+00 2.465190e-32
    outer loop
      vertex -1.626150e+01 2.679550e+01 1.193300e+01
      vertex -1.626150e+01 2.679550e+01 0.000000e+00
      vertex -2.072750e+01 2.679550e+01 1.193300e+01
    endloop
  endfacet
  facet normal 2.886130e-16 8.316096e-01 -5.553606e-01
    outer loop
      vertex -1.626150e+01 -2.489500e+00 9.455000e+00
      vertex -8.760500e+00 -2.489500e+00 9.455000e+00
      vertex -8.760500e+00 -3.265500e+00 8.293000e+00
    endloop
  endfacet
  facet normal 2.886130e-16 8.316096e-01 -5.553606e-01
    outer loop
      vertex -1.626150e+01 -2.489500e+00 9.455000e+00
      vertex -8.760500e+00 -3.265500e+00 8.293000e+00
      vertex -1.626150e+01 -3.265500e+00 8.293000e+00
    endloop
  endfacet
  facet normal 3.122246e-16 9.808279e-01 -1.948760e-01
    outer loop
      vertex -1.626150e+01 -3.265500e+00 8.293000e+00
      vertex -8.760500e+00 -3.265500e+00 8.293000e+00
      vertex -8.760500e+00 -3.537500e+00 6.924001e+00
    endloop
  endfacet
  facet normal 3.122246e-16 9.808279e-01 -1.948760e-01
    outer loop
      vertex -1.626150e+01 -3.265500e+00 8.293000e+00
      vertex -8.760500e+00 -3.537500e+00 6.924001e+00
      vertex -1.626150e+01 -3.537500e+00 6.924001e+00
    endloop
  endfacet
  facet normal -5.553539e-01 1.700281e-16 8.316141e-01
    outer loop
      vertex 1.840850e+01 -2.679650e+01 4.364000e+00
      vertex 1.840850e+01 -2.338650e+01 4.364000e+00
      vertex 1.723450e+01 -2.338650e+01 3.580000e+00
    endloop
  endfacet
  facet normal -5.553539e-01 1.700281e-16 8.316141e-01
    outer loop
      vertex 1.840850e+01 -2.679650e+01 4.364000e+00
      vertex 1.723450e+01 -2.338650e+01 3.580000e+00
      vertex 1.723450e+01 -2.679650e+01 3.580000e+00
    endloop
  endfacet
  facet normal 2.883759e-16 9.808550e-01 1.947391e-01
    outer loop
      vertex -1.626150e+01 -3.537500e+00 6.924001e+00
      vertex -8.760500e+00 -3.537500e+00 6.924001e+00
      vertex -1.626150e+01 -3.265500e+00 5.554000e+00
    endloop
  endfacet
  facet normal 2.883759e-16 9.808550e-01 1.947391e-01
    outer loop
      vertex -8.760500e+00 -3.265500e+00 5.554000e+00
      vertex -1.626150e+01 -3.265500e+00 5.554000e+00
      vertex -8.760500e+00 -3.537500e+00 6.924001e+00
    endloop
  endfacet
  facet normal 3.061617e-16 1.000000e+00 2.465190e-32
    outer loop
      vertex 1.250550e+01 2.679550e+01 8.309000e+00
      vertex 1.222950e+01 2.679550e+01 6.924001e+00
      vertex -8.760500e+00 2.679550e+01 1.193300e+01
    endloop
  endfacet
  facet normal -8.312870e-01 2.545082e-16 5.558435e-01
    outer loop
      vertex 1.919350e+01 -2.679650e+01 5.538000e+00
      vertex 1.919350e+01 -2.338650e+01 5.538000e+00
      vertex 1.840850e+01 -2.338650e+01 4.364000e+00
    endloop
  endfacet
  facet normal -8.312870e-01 2.545082e-16 5.558435e-01
    outer loop
      vertex 1.919350e+01 -2.679650e+01 5.538000e+00
      vertex 1.840850e+01 -2.338650e+01 4.364000e+00
      vertex 1.840850e+01 -2.679650e+01 4.364000e+00
    endloop
  endfacet
  facet normal 2.206010e-16 8.316096e-01 5.553606e-01
    outer loop
      vertex -8.760500e+00 -2.489500e+00 4.392000e+00
      vertex -1.626150e+01 -2.489500e+00 4.392000e+00
      vertex -1.626150e+01 -3.265500e+00 5.554000e+00
    endloop
  endfacet
  facet normal 2.206010e-16 8.316096e-01 5.553606e-01
    outer loop
      vertex -8.760500e+00 -2.489500e+00 4.392000e+00
      vertex -1.626150e+01 -3.265500e+00 5.554000e+00
      vertex -8.760500e+00 -3.265500e+00 5.554000e+00
    endloop
  endfacet
  facet normal 3.061617e-16 1.000000e+00 2.465190e-32
    outer loop
      vertex 2.079550e+01 2.679550e+01 3.552714e-15
      vertex -8.760500e+00 2.679550e+01 0.000000e+00
      vertex 1.446450e+01 2.679550e+01 3.580000e+00
    endloop
  endfacet
  facet normal 3.061617e-16 1.000000e+00 2.465190e-32
    outer loop
      vertex 2.079550e+01 2.679550e+01 3.552714e-15
      vertex 1.446450e+01 2.679550e+01 3.580000e+00
      vertex 1.584950e+01 2.679550e+01 3.304000e+00
    endloop
  endfacet
  facet normal 3.061617e-16 1.000000e+00 2.465190e-32
    outer loop
      vertex 2.079550e+01 2.679550e+01 3.552714e-15
      vertex 1.584950e+01 2.679550e+01 3.304000e+00
      vertex 1.723450e+01 2.679550e+01 3.580000e+00
    endloop
  endfacet
  facet normal -9.807436e-01 3.002661e-16 1.952996e-01
    outer loop
      vertex 1.946950e+01 -2.679650e+01 6.924001e+00
      vertex 1.946950e+01 -2.338650e+01 6.924001e+00
      vertex 1.919350e+01 -2.338650e+01 5.538000e+00
    endloop
  endfacet
  facet normal -9.807436e-01 3.002661e-16 1.952996e-01
    outer loop
      vertex 1.946950e+01 -2.679650e+01 6.924001e+00
      vertex 1.919350e+01 -2.338650e+01 5.538000e+00
      vertex 1.919350e+01 -2.679650e+01 5.538000e+00
    endloop
  endfacet
  facet normal 1.191088e-16 5.553606e-01 8.316096e-01
    outer loop
      vertex -8.760500e+00 -1.327500e+00 3.616000e+00
      vertex -1.626150e+01 -1.327500e+00 3.616000e+00
      vertex -1.626150e+01 -2.489500e+00 4.392000e+00
    endloop
  endfacet
  facet normal 1.191088e-16 5.553606e-01 8.316096e-01
    outer loop
      vertex -8.760500e+00 -1.327500e+00 3.616000e+00
      vertex -1.626150e+01 -2.489500e+00 4.392000e+00
      vertex -8.760500e+00 -2.489500e+00 4.392000e+00
    endloop
  endfacet
  facet normal -1.954352e-01 5.983478e-17 9.807166e-01
    outer loop
      vertex 1.723450e+01 2.338550e+01 3.580000e+00
      vertex 1.723450e+01 2.679550e+01 3.580000e+00
      vertex 1.584950e+01 2.679550e+01 3.304000e+00
    endloop
  endfacet
  facet normal -1.954352e-01 5.983478e-17 9.807166e-01
    outer loop
      vertex 1.723450e+01 2.338550e+01 3.580000e+00
      vertex 1.584950e+01 2.679550e+01 3.304000e+00
      vertex 1.584950e+01 2.338550e+01 3.304000e+00
    endloop
  endfacet
  facet normal -9.807166e-01 3.002579e-16 -1.954352e-01
    outer loop
      vertex 1.919350e+01 -2.679650e+01 8.309000e+00
      vertex 1.919350e+01 -2.338650e+01 8.309000e+00
      vertex 1.946950e+01 -2.338650e+01 6.924001e+00
    endloop
  endfacet
  facet normal -9.807166e-01 3.002579e-16 -1.954352e-01
    outer loop
      vertex 1.919350e+01 -2.679650e+01 8.309000e+00
      vertex 1.946950e+01 -2.338650e+01 6.924001e+00
      vertex 1.946950e+01 -2.679650e+01 6.924001e+00
    endloop
  endfacet
  facet normal -1.000000e+00 3.061617e-16 -6.123234e-17
    outer loop
      vertex -1.626150e+01 -3.265500e+00 8.293000e+00
      vertex -1.626150e+01 -2.338650e+01 1.193300e+01
      vertex -1.626150e+01 -2.489500e+00 9.455000e+00
    endloop
  endfacet
  facet normal -5.553539e-01 1.700281e-16 8.316141e-01
    outer loop
      vertex 1.840850e+01 2.338550e+01 4.364000e+00
      vertex 1.840850e+01 2.679550e+01 4.364000e+00
      vertex 1.723450e+01 2.679550e+01 3.580000e+00
    endloop
  endfacet
  facet normal -5.553539e-01 1.700281e-16 8.316141e-01
    outer loop
      vertex 1.840850e+01 2.338550e+01 4.364000e+00
      vertex 1.723450e+01 2.679550e+01 3.580000e+00
      vertex 1.723450e+01 2.338550e+01 3.580000e+00
    endloop
  endfacet
  facet normal -4.383949e-19 1.947391e-01 9.808550e-01
    outer loop
      vertex -8.760500e+00 4.250028e-02 3.344000e+00
      vertex -1.626150e+01 4.250028e-02 3.344000e+00
      vertex -1.626150e+01 -1.327500e+00 3.616000e+00
    endloop
  endfacet
  facet normal -4.383949e-19 1.947391e-01 9.808550e-01
    outer loop
      vertex -8.760500e+00 4.250028e-02 3.344000e+00
      vertex -1.626150e+01 -1.327500e+00 3.616000e+00
      vertex -8.760500e+00 -1.327500e+00 3.616000e+00
    endloop
  endfacet
  facet normal -8.312870e-01 2.545082e-16 -5.558435e-01
    outer loop
      vertex 1.840850e+01 -2.679650e+01 9.483001e+00
      vertex 1.840850e+01 -2.338650e+01 9.483001e+00
      vertex 1.919350e+01 -2.338650e+01 8.309000e+00
    endloop
  endfacet
  facet normal -8.312870e-01 2.545082e-16 -5.558435e-01
    outer loop
      vertex 1.840850e+01 -2.679650e+01 9.483001e+00
      vertex 1.919350e+01 -2.338650e+01 8.309000e+00
      vertex 1.919350e+01 -2.679650e+01 8.309000e+00
    endloop
  endfacet
  facet normal -8.312870e-01 2.545082e-16 5.558435e-01
    outer loop
      vertex 1.919350e+01 2.338550e+01 5.538000e+00
      vertex 1.919350e+01 2.679550e+01 5.538000e+00
      vertex 1.840850e+01 2.679550e+01 4.364000e+00
    endloop
  endfacet
  facet normal -8.312870e-01 2.545082e-16 5.558435e-01
    outer loop
      vertex 1.919350e+01 2.338550e+01 5.538000e+00
      vertex 1.840850e+01 2.679550e+01 4.364000e+00
      vertex 1.840850e+01 2.338550e+01 4.364000e+00
    endloop
  endfacet
  facet normal -5.558435e-01 1.701780e-16 -8.312870e-01
    outer loop
      vertex 1.723450e+01 -2.679650e+01 1.026800e+01
      vertex 1.723450e+01 -2.338650e+01 1.026800e+01
      vertex 1.840850e+01 -2.338650e+01 9.483001e+00
    endloop
  endfacet
  facet normal -5.558435e-01 1.701780e-16 -8.312870e-01
    outer loop
      vertex 1.723450e+01 -2.679650e+01 1.026800e+01
      vertex 1.840850e+01 -2.338650e+01 9.483001e+00
      vertex 1.840850e+01 -2.679650e+01 9.483001e+00
    endloop
  endfacet
  facet normal -1.197219e-16 -1.948760e-01 9.808279e-01
    outer loop
      vertex -8.760500e+00 1.411500e+00 3.616000e+00
      vertex -1.626150e+01 1.411500e+00 3.616000e+00
      vertex -1.626150e+01 4.250028e-02 3.344000e+00
    endloop
  endfacet
  facet normal -1.197219e-16 -1.948760e-01 9.808279e-01
    outer loop
      vertex -8.760500e+00 1.411500e+00 3.616000e+00
      vertex -1.626150e+01 4.250028e-02 3.344000e+00
      vertex -8.760500e+00 4.250028e-02 3.344000e+00
    endloop
  endfacet
  facet normal -9.807436e-01 3.002661e-16 1.952996e-01
    outer loop
      vertex 1.946950e+01 2.338550e+01 6.924001e+00
      vertex 1.946950e+01 2.679550e+01 6.924001e+00
      vertex 1.919350e+01 2.679550e+01 5.538000e+00
    endloop
  endfacet
  facet normal -9.807436e-01 3.002661e-16 1.952996e-01
    outer loop
      vertex 1.946950e+01 2.338550e+01 6.924001e+00
      vertex 1.919350e+01 2.679550e+01 5.538000e+00
      vertex 1.919350e+01 2.338550e+01 5.538000e+00
    endloop
  endfacet
  facet normal -1.947540e-01 5.962623e-17 -9.808521e-01
    outer loop
      vertex 1.584950e+01 -2.679650e+01 1.054300e+01
      vertex 1.584950e+01 -2.338650e+01 1.054300e+01
      vertex 1.723450e+01 -2.338650e+01 1.026800e+01
    endloop
  endfacet
  facet normal -1.947540e-01 5.962623e-17 -9.808521e-01
    outer loop
      vertex 1.584950e+01 -2.679650e+01 1.054300e+01
      vertex 1.723450e+01 -2.338650e+01 1.026800e+01
      vertex 1.723450e+01 -2.679650e+01 1.026800e+01
    endloop
  endfacet
  facet normal -2.209515e-16 -5.553606e-01 8.316096e-01
    outer loop
      vertex -8.760500e+00 2.573500e+00 4.392000e+00
      vertex -1.626150e+01 2.573500e+00 4.392000e+00
      vertex -1.626150e+01 1.411500e+00 3.616000e+00
    endloop
  endfacet
  facet normal -2.209515e-16 -5.553606e-01 8.316096e-01
    outer loop
      vertex -8.760500e+00 2.573500e+00 4.392000e+00
      vertex -1.626150e+01 1.411500e+00 3.616000e+00
      vertex -8.760500e+00 1.411500e+00 3.616000e+00
    endloop
  endfacet
  facet normal -9.807166e-01 3.002579e-16 -1.954352e-01
    outer loop
      vertex 1.919350e+01 2.338550e+01 8.309000e+00
      vertex 1.919350e+01 2.679550e+01 8.309000e+00
      vertex 1.946950e+01 2.679550e+01 6.924001e+00
    endloop
  endfacet
  facet normal -9.807166e-01 3.002579e-16 -1.954352e-01
    outer loop
      vertex 1.919350e+01 2.338550e+01 8.309000e+00
      vertex 1.946950e+01 2.679550e+01 6.924001e+00
      vertex 1.946950e+01 2.338550e+01 6.924001e+00
    endloop
  endfacet
  facet normal 1.947540e-01 -5.962623e-17 -9.808521e-01
    outer loop
      vertex 1.446450e+01 -2.679650e+01 1.026800e+01
      vertex 1.446450e+01 -2.338650e+01 1.026800e+01
      vertex 1.584950e+01 -2.338650e+01 1.054300e+01
    endloop
  endfacet
  facet normal 1.947540e-01 -5.962623e-17 -9.808521e-01
    outer loop
      vertex 1.446450e+01 -2.679650e+01 1.026800e+01
      vertex 1.584950e+01 -2.338650e+01 1.054300e+01
      vertex 1.584950e+01 -2.679650e+01 1.054300e+01
    endloop
  endfacet
  facet normal -2.886130e-16 -8.316096e-01 5.553606e-01
    outer loop
      vertex -8.760500e+00 3.349500e+00 5.554000e+00
      vertex -1.626150e+01 3.349500e+00 5.554000e+00
      vertex -1.626150e+01 2.573500e+00 4.392000e+00
    endloop
  endfacet
  facet normal -2.886130e-16 -8.316096e-01 5.553606e-01
    outer loop
      vertex -8.760500e+00 3.349500e+00 5.554000e+00
      vertex -1.626150e+01 2.573500e+00 4.392000e+00
      vertex -8.760500e+00 2.573500e+00 4.392000e+00
    endloop
  endfacet
  facet normal -8.312870e-01 2.545082e-16 -5.558435e-01
    outer loop
      vertex 1.840850e+01 2.338550e+01 9.483001e+00
      vertex 1.840850e+01 2.679550e+01 9.483001e+00
      vertex 1.919350e+01 2.679550e+01 8.309000e+00
    endloop
  endfacet
  facet normal -8.312870e-01 2.545082e-16 -5.558435e-01
    outer loop
      vertex 1.840850e+01 2.338550e+01 9.483001e+00
      vertex 1.919350e+01 2.679550e+01 8.309000e+00
      vertex 1.919350e+01 2.338550e+01 8.309000e+00
    endloop
  endfacet
  facet normal 5.558435e-01 -1.701780e-16 -8.312870e-01
    outer loop
      vertex 1.329050e+01 -2.679650e+01 9.483001e+00
      vertex 1.329050e+01 -2.338650e+01 9.483001e+00
      vertex 1.446450e+01 -2.338650e+01 1.026800e+01
    endloop
  endfacet
  facet normal 5.558435e-01 -1.701780e-16 -8.312870e-01
    outer loop
      vertex 1.329050e+01 -2.679650e+01 9.483001e+00
      vertex 1.446450e+01 -2.338650e+01 1.026800e+01
      vertex 1.446450e+01 -2.679650e+01 1.026800e+01
    endloop
  endfacet
  facet normal -3.122246e-16 -9.808550e-01 1.947391e-01
    outer loop
      vertex -1.626150e+01 3.621500e+00 6.924001e+00
      vertex -1.626150e+01 3.349500e+00 5.554000e+00
      vertex -8.760500e+00 3.621500e+00 6.924001e+00
    endloop
  endfacet
  facet normal -3.122246e-16 -9.808550e-01 1.947391e-01
    outer loop
      vertex -8.760500e+00 3.621500e+00 6.924001e+00
      vertex -1.626150e+01 3.349500e+00 5.554000e+00
      vertex -8.760500e+00 3.349500e+00 5.554000e+00
    endloop
  endfacet
  facet normal 8.312870e-01 -2.545082e-16 -5.558435e-01
    outer loop
      vertex 1.250550e+01 -2.679650e+01 8.309000e+00
      vertex 1.250550e+01 -2.338650e+01 8.309000e+00
      vertex 1.329050e+01 -2.338650e+01 9.483001e+00
    endloop
  endfacet
  facet normal 8.312870e-01 -2.545082e-16 -5.558435e-01
    outer loop
      vertex 1.250550e+01 -2.679650e+01 8.309000e+00
      vertex 1.329050e+01 -2.338650e+01 9.483001e+00
      vertex 1.329050e+01 -2.679650e+01 9.483001e+00
    endloop
  endfacet
  facet normal -5.558435e-01 1.701780e-16 -8.312870e-01
    outer loop
      vertex 1.723450e+01 2.338550e+01 1.026800e+01
      vertex 1.723450e+01 2.679550e+01 1.026800e+01
      vertex 1.840850e+01 2.679550e+01 9.483001e+00
    endloop
  endfacet
  facet normal -5.558435e-01 1.701780e-16 -8.312870e-01
    outer loop
      vertex 1.723450e+01 2.338550e+01 1.026800e+01
      vertex 1.840850e+01 2.679550e+01 9.483001e+00
      vertex 1.840850e+01 2.338550e+01 9.483001e+00
    endloop
  endfacet
  facet normal 6.123234e-17 5.904906e-33 -1.000000e+00
    outer loop
      vertex -1.125350e+01 1.196850e+01 7.010000e+00
      vertex -8.760500e+00 1.196850e+01 7.010000e+00
      vertex -8.760500e+00 5.488500e+00 7.010000e+00
    endloop
  endfacet
  facet normal 6.123234e-17 5.904906e-33 -1.000000e+00
    outer loop
      vertex -1.125350e+01 1.196850e+01 7.010000e+00
      vertex -8.760500e+00 5.488500e+00 7.010000e+00
      vertex -1.125350e+01 5.488500e+00 7.010000e+00
    endloop
  endfacet
  facet normal 9.807166e-01 -3.002579e-16 -1.954352e-01
    outer loop
      vertex 1.222950e+01 -2.679650e+01 6.924001e+00
      vertex 1.222950e+01 -2.338650e+01 6.924001e+00
      vertex 1.250550e+01 -2.338650e+01 8.309000e+00
    endloop
  endfacet
  facet normal 9.807166e-01 -3.002579e-16 -1.954352e-01
    outer loop
      vertex 1.222950e+01 -2.679650e+01 6.924001e+00
      vertex 1.250550e+01 -2.338650e+01 8.309000e+00
      vertex 1.250550e+01 -2.679650e+01 8.309000e+00
    endloop
  endfacet
  facet normal -1.947540e-01 5.962623e-17 -9.808521e-01
    outer loop
      vertex 1.584950e+01 2.338550e+01 1.054300e+01
      vertex 1.584950e+01 2.679550e+01 1.054300e+01
      vertex 1.723450e+01 2.679550e+01 1.026800e+01
    endloop
  endfacet
  facet normal -1.947540e-01 5.962623e-17 -9.808521e-01
    outer loop
      vertex 1.584950e+01 2.338550e+01 1.054300e+01
      vertex 1.723450e+01 2.679550e+01 1.026800e+01
      vertex 1.723450e+01 2.338550e+01 1.026800e+01
    endloop
  endfacet
  facet normal 9.807436e-01 -3.002661e-16 1.952996e-01
    outer loop
      vertex 1.250550e+01 -2.679650e+01 5.538000e+00
      vertex 1.250550e+01 -2.338650e+01 5.538000e+00
      vertex 1.222950e+01 -2.338650e+01 6.924001e+00
    endloop
  endfacet
  facet normal 9.807436e-01 -3.002661e-16 1.952996e-01
    outer loop
      vertex 1.250550e+01 -2.679650e+01 5.538000e+00
      vertex 1.222950e+01 -2.338650e+01 6.924001e+00
      vertex 1.222950e+01 -2.679650e+01 6.924001e+00
    endloop
  endfacet
  facet normal 3.061617e-16 1.000000e+00 2.465190e-32
    outer loop
      vertex -1.125350e+01 5.488500e+00 9.430008e-01
      vertex -1.125350e+01 5.488500e+00 7.010000e+00
      vertex -8.760500e+00 5.488500e+00 7.010000e+00
    endloop
  endfacet
  facet normal 1.947540e-01 -5.962623e-17 -9.808521e-01
    outer loop
      vertex 1.446450e+01 2.338550e+01 1.026800e+01
      vertex 1.446450e+01 2.679550e+01 1.026800e+01
      vertex 1.584950e+01 2.679550e+01 1.054300e+01
    endloop
  endfacet
  facet normal 1.947540e-01 -5.962623e-17 -9.808521e-01
    outer loop
      vertex 1.446450e+01 2.338550e+01 1.026800e+01
      vertex 1.584950e+01 2.679550e+01 1.054300e+01
      vertex 1.584950e+01 2.338550e+01 1.054300e+01
    endloop
  endfacet
  facet normal 1.000000e+00 -3.061617e-16 6.123234e-17
    outer loop
      vertex -1.125350e+01 1.196850e+01 7.010000e+00
      vertex -1.125350e+01 5.488500e+00 7.010000e+00
      vertex -1.125350e+01 5.488500e+00 9.430008e-01
    endloop
  endfacet
  facet normal 8.312870e-01 -2.545082e-16 5.558435e-01
    outer loop
      vertex 1.329050e+01 -2.679650e+01 4.364000e+00
      vertex 1.329050e+01 -2.338650e+01 4.364000e+00
      vertex 1.250550e+01 -2.338650e+01 5.538000e+00
    endloop
  endfacet
  facet normal 8.312870e-01 -2.545082e-16 5.558435e-01
    outer loop
      vertex 1.329050e+01 -2.679650e+01 4.364000e+00
      vertex 1.250550e+01 -2.338650e+01 5.538000e+00
      vertex 1.250550e+01 -2.679650e+01 5.538000e+00
    endloop
  endfacet
  facet normal 5.558435e-01 -1.701780e-16 -8.312870e-01
    outer loop
      vertex 1.329050e+01 2.338550e+01 9.483001e+00
      vertex 1.329050e+01 2.679550e+01 9.483001e+00
      vertex 1.446450e+01 2.679550e+01 1.026800e+01
    endloop
  endfacet
  facet normal 5.558435e-01 -1.701780e-16 -8.312870e-01
    outer loop
      vertex 1.329050e+01 2.338550e+01 9.483001e+00
      vertex 1.446450e+01 2.679550e+01 1.026800e+01
      vertex 1.446450e+01 2.338550e+01 1.026800e+01
    endloop
  endfacet
  facet normal -3.061617e-16 -1.000000e+00 -2.465190e-32
    outer loop
      vertex -8.760500e+00 1.196850e+01 9.430008e-01
      vertex -8.760500e+00 1.196850e+01 7.010000e+00
      vertex -1.125350e+01 1.196850e+01 9.430008e-01
    endloop
  endfacet
  facet normal -3.061617e-16 -1.000000e+00 -2.465190e-32
    outer loop
      vertex -1.125350e+01 1.196850e+01 7.010000e+00
      vertex -1.125350e+01 1.196850e+01 9.430008e-01
      vertex -8.760500e+00 1.196850e+01 7.010000e+00
    endloop
  endfacet
  facet normal 5.553539e-01 -1.700281e-16 8.316141e-01
    outer loop
      vertex 1.446450e+01 -2.679650e+01 3.580000e+00
      vertex 1.446450e+01 -2.338650e+01 3.580000e+00
      vertex 1.329050e+01 -2.338650e+01 4.364000e+00
    endloop
  endfacet
  facet normal 5.553539e-01 -1.700281e-16 8.316141e-01
    outer loop
      vertex 1.446450e+01 -2.679650e+01 3.580000e+00
      vertex 1.329050e+01 -2.338650e+01 4.364000e+00
      vertex 1.329050e+01 -2.679650e+01 4.364000e+00
    endloop
  endfacet
  facet normal 3.061617e-16 1.000000e+00 2.465190e-32
    outer loop
      vertex -8.760500e+00 5.488500e+00 9.430008e-01
      vertex -1.125350e+01 5.488500e+00 9.430008e-01
      vertex -8.760500e+00 5.488500e+00 7.010000e+00
    endloop
  endfacet
  facet normal 8.312870e-01 -2.545082e-16 -5.558435e-01
    outer loop
      vertex 1.250550e+01 2.338550e+01 8.309000e+00
      vertex 1.250550e+01 2.679550e+01 8.309000e+00
      vertex 1.329050e+01 2.679550e+01 9.483001e+00
    endloop
  endfacet
  facet normal 8.312870e-01 -2.545082e-16 -5.558435e-01
    outer loop
      vertex 1.250550e+01 2.338550e+01 8.309000e+00
      vertex 1.329050e+01 2.679550e+01 9.483001e+00
      vertex 1.329050e+01 2.338550e+01 9.483001e+00
    endloop
  endfacet
  facet normal 1.954352e-01 -5.983478e-17 9.807166e-01
    outer loop
      vertex 1.584950e+01 -2.679650e+01 3.304000e+00
      vertex 1.584950e+01 -2.338650e+01 3.304000e+00
      vertex 1.446450e+01 -2.338650e+01 3.580000e+00
    endloop
  endfacet
  facet normal 1.954352e-01 -5.983478e-17 9.807166e-01
    outer loop
      vertex 1.584950e+01 -2.679650e+01 3.304000e+00
      vertex 1.446450e+01 -2.338650e+01 3.580000e+00
      vertex 1.446450e+01 -2.679650e+01 3.580000e+00
    endloop
  endfacet
  facet normal 1.000000e+00 -3.061617e-16 6.123234e-17
    outer loop
      vertex -1.125350e+01 5.488500e+00 9.430008e-01
      vertex -1.125350e+01 1.196850e+01 9.430008e-01
      vertex -1.125350e+01 1.196850e+01 7.010000e+00
    endloop
  endfacet
  facet normal -6.123234e-17 -5.904906e-33 1.000000e+00
    outer loop
      vertex -8.760500e+00 1.196850e+01 9.430008e-01
      vertex -1.125350e+01 1.196850e+01 9.430008e-01
      vertex -1.125350e+01 5.488500e+00 9.430008e-01
    endloop
  endfacet
  facet normal -6.123234e-17 -5.904906e-33 1.000000e+00
    outer loop
      vertex -8.760500e+00 1.196850e+01 9.430008e-01
      vertex -1.125350e+01 5.488500e+00 9.430008e-01
      vertex -8.760500e+00 5.488500e+00 9.430008e-01
    endloop
  endfacet
  facet normal 9.807166e-01 -3.002579e-16 -1.954352e-01
    outer loop
      vertex 1.222950e+01 2.338550e+01 6.924001e+00
      vertex 1.222950e+01 2.679550e+01 6.924001e+00
      vertex 1.250550e+01 2.679550e+01 8.309000e+00
    endloop
  endfacet
  facet normal 9.807166e-01 -3.002579e-16 -1.954352e-01
    outer loop
      vertex 1.222950e+01 2.338550e+01 6.924001e+00
      vertex 1.250550e+01 2.679550e+01 8.309000e+00
      vertex 1.250550e+01 2.338550e+01 8.309000e+00
    endloop
  endfacet
  facet normal 6.123234e-17 5.904906e-33 -1.000000e+00
    outer loop
      vertex -1.125350e+01 -5.762500e+00 7.010000e+00
      vertex -8.760500e+00 -5.762500e+00 7.010000e+00
      vertex -8.760500e+00 -1.224250e+01 7.010000e+00
    endloop
  endfacet
  facet normal 6.123234e-17 5.904906e-33 -1.000000e+00
    outer loop
      vertex -1.125350e+01 -5.762500e+00 7.010000e+00
      vertex -8.760500e+00 -1.224250e+01 7.010000e+00
      vertex -1.125350e+01 -1.224250e+01 7.010000e+00
    endloop
  endfacet
  facet normal 9.807436e-01 -3.002661e-16 1.952996e-01
    outer loop
      vertex 1.250550e+01 2.338550e+01 5.538000e+00
      vertex 1.250550e+01 2.679550e+01 5.538000e+00
      vertex 1.222950e+01 2.679550e+01 6.924001e+00
    endloop
  endfacet
  facet normal 9.807436e-01 -3.002661e-16 1.952996e-01
    outer loop
      vertex 1.250550e+01 2.338550e+01 5.538000e+00
      vertex 1.222950e+01 2.679550e+01 6.924001e+00
      vertex 1.222950e+01 2.338550e+01 6.924001e+00
    endloop
  endfacet
  facet normal -3.061617e-16 -1.000000e+00 -2.465190e-32
    outer loop
      vertex -8.760500e+00 -5.762500e+00 7.010000e+00
      vertex -1.125350e+01 -5.762500e+00 7.010000e+00
      vertex -1.125350e+01 -5.762500e+00 9.430008e-01
    endloop
  endfacet
  facet normal -3.061617e-16 -1.000000e+00 -2.465190e-32
    outer loop
      vertex -8.760500e+00 -5.762500e+00 7.010000e+00
      vertex -1.125350e+01 -5.762500e+00 9.430008e-01
      vertex -8.760500e+00 -5.762500e+00 9.430008e-01
    endloop
  endfacet
  facet normal 3.061617e-16 1.000000e+00 2.465190e-32
    outer loop
      vertex -8.760500e+00 -1.224250e+01 9.430008e-01
      vertex -1.125350e+01 -1.224250e+01 9.430008e-01
      vertex -1.125350e+01 -1.224250e+01 7.010000e+00
    endloop
  endfacet
  facet normal 3.061617e-16 1.000000e+00 2.465190e-32
    outer loop
      vertex -8.760500e+00 -1.224250e+01 9.430008e-01
      vertex -1.125350e+01 -1.224250e+01 7.010000e+00
      vertex -8.760500e+00 -1.224250e+01 7.010000e+00
    endloop
  endfacet
  facet normal 8.312870e-01 -2.545082e-16 5.558435e-01
    outer loop
      vertex 1.329050e+01 2.338550e+01 4.364000e+00
      vertex 1.329050e+01 2.679550e+01 4.364000e+00
      vertex 1.250550e+01 2.679550e+01 5.538000e+00
    endloop
  endfacet
  facet normal 8.312870e-01 -2.545082e-16 5.558435e-01
    outer loop
      vertex 1.329050e+01 2.338550e+01 4.364000e+00
      vertex 1.250550e+01 2.679550e+01 5.538000e+00
      vertex 1.250550e+01 2.338550e+01 5.538000e+00
    endloop
  endfacet
  facet normal -3.061617e-16 -1.000000e+00 -2.465190e-32
    outer loop
      vertex 1.723450e+01 2.338550e+01 3.580000e+00
      vertex 2.079550e+01 2.338550e+01 3.552714e-15
      vertex 1.840850e+01 2.338550e+01 4.364000e+00
    endloop
  endfacet
  facet normal 1.000000e+00 -3.061617e-16 6.123234e-17
    outer loop
      vertex -1.125350e+01 -5.762500e+00 9.430008e-01
      vertex -1.125350e+01 -5.762500e+00 7.010000e+00
      vertex -1.125350e+01 -1.224250e+01 7.010000e+00
    endloop
  endfacet
  facet normal 1.000000e+00 -3.061617e-16 6.123234e-17
    outer loop
      vertex -1.125350e+01 -5.762500e+00 9.430008e-01
      vertex -1.125350e+01 -1.224250e+01 7.010000e+00
      vertex -1.125350e+01 -1.224250e+01 9.430008e-01
    endloop
  endfacet
  facet normal -3.061617e-16 -1.000000e+00 -2.465190e-32
    outer loop
      vertex 1.919350e+01 2.338550e+01 5.538000e+00
      vertex 1.840850e+01 2.338550e+01 4.364000e+00
      vertex 2.079550e+01 2.338550e+01 3.552714e-15
    endloop
  endfacet
  facet normal 5.553539e-01 -1.700281e-16 8.316141e-01
    outer loop
      vertex 1.446450e+01 2.338550e+01 3.580000e+00
      vertex 1.446450e+01 2.679550e+01 3.580000e+00
      vertex 1.329050e+01 2.679550e+01 4.364000e+00
    endloop
  endfacet
  facet normal 5.553539e-01 -1.700281e-16 8.316141e-01
    outer loop
      vertex 1.446450e+01 2.338550e+01 3.580000e+00
      vertex 1.329050e+01 2.679550e+01 4.364000e+00
      vertex 1.329050e+01 2.338550e+01 4.364000e+00
    endloop
  endfacet
  facet normal -6.123234e-17 -5.904906e-33 1.000000e+00
    outer loop
      vertex -8.760500e+00 -5.762500e+00 9.430008e-01
      vertex -1.125350e+01 -5.762500e+00 9.430008e-01
      vertex -1.125350e+01 -1.224250e+01 9.430008e-01
    endloop
  endfacet
  facet normal -6.123234e-17 -5.904906e-33 1.000000e+00
    outer loop
      vertex -8.760500e+00 -5.762500e+00 9.430008e-01
      vertex -1.125350e+01 -1.224250e+01 9.430008e-01
      vertex -8.760500e+00 -1.224250e+01 9.430008e-01
    endloop
  endfacet
  facet normal -3.061617e-16 -1.000000e+00 -2.465190e-32
    outer loop
      vertex 1.919350e+01 2.338550e+01 5.538000e+00
      vertex 2.079550e+01 2.338550e+01 3.552714e-15
      vertex 1.946950e+01 2.338550e+01 6.924001e+00
    endloop
  endfacet
  facet normal -3.061617e-16 -1.000000e+00 -2.465190e-32
    outer loop
      vertex 2.079550e+01 2.338550e+01 1.193300e+01
      vertex 1.946950e+01 2.338550e+01 6.924001e+00
      vertex 2.079550e+01 2.338550e+01 3.552714e-15
    endloop
  endfacet
  facet normal 1.954352e-01 -5.983478e-17 9.807166e-01
    outer loop
      vertex 1.584950e+01 2.338550e+01 3.304000e+00
      vertex 1.584950e+01 2.679550e+01 3.304000e+00
      vertex 1.446450e+01 2.679550e+01 3.580000e+00
    endloop
  endfacet
  facet normal 1.954352e-01 -5.983478e-17 9.807166e-01
    outer loop
      vertex 1.584950e+01 2.338550e+01 3.304000e+00
      vertex 1.446450e+01 2.679550e+01 3.580000e+00
      vertex 1.446450e+01 2.338550e+01 3.580000e+00
    endloop
  endfacet
  facet normal -6.123234e-17 -5.904906e-33 1.000000e+00
    outer loop
      vertex -8.760500e+00 2.679550e+01 1.193300e+01
      vertex 1.492870e+01 2.338550e+01 1.193300e+01
      vertex 2.079550e+01 2.679550e+01 1.193300e+01
    endloop
  endfacet
  facet normal -6.123234e-17 -5.904906e-33 1.000000e+00
    outer loop
      vertex 2.079550e+01 2.338550e+01 1.193300e+01
      vertex 2.079550e+01 2.679550e+01 1.193300e+01
      vertex 1.492870e+01 2.338550e+01 1.193300e+01
    endloop
  endfacet
  facet normal -6.123234e-17 -5.904906e-33 1.000000e+00
    outer loop
      vertex 1.492870e+01 2.338550e+01 1.193300e+01
      vertex -8.760500e+00 2.679550e+01 1.193300e+01
      vertex -8.760500e+00 2.338550e+01 1.193300e+01
    endloop
  endfacet
  facet normal 1.000000e+00 -3.061617e-16 6.123234e-17
    outer loop
      vertex -8.760500e+00 2.686450e+01 3.497800e+01
      vertex -8.760500e+00 -2.686450e+01 3.497800e+01
      vertex -8.760500e+00 4.250028e-02 1.050300e+01
    endloop
  endfacet
  facet normal 1.000000e+00 -3.061617e-16 6.123234e-17
    outer loop
      vertex -8.760500e+00 1.411500e+00 1.023100e+01
      vertex -8.760500e+00 2.686450e+01 3.497800e+01
      vertex -8.760500e+00 4.250028e-02 1.050300e+01
    endloop
  endfacet
  facet normal -3.061617e-16 -1.000000e+00 -2.465190e-32
    outer loop
      vertex 1.723450e+01 -2.679650e+01 3.580000e+00
      vertex 2.079550e+01 -2.679650e+01 3.552714e-15
      vertex 1.840850e+01 -2.679650e+01 4.364000e+00
    endloop
  endfacet
  facet normal 1.000000e+00 -3.061617e-16 6.123234e-17
    outer loop
      vertex -8.760500e+00 2.338550e+01 1.193300e+01
      vertex -8.760500e+00 2.679550e+01 1.193300e+01
      vertex -8.760500e+00 2.686450e+01 3.497800e+01
    endloop
  endfacet
  facet normal -3.061617e-16 -1.000000e+00 -2.465190e-32
    outer loop
      vertex 1.840850e+01 -2.679650e+01 4.364000e+00
      vertex 2.079550e+01 -2.679650e+01 3.552714e-15
      vertex 1.919350e+01 -2.679650e+01 5.538000e+00
    endloop
  endfacet
  facet normal -1.000000e+00 3.061617e-16 -6.123234e-17
    outer loop
      vertex -1.626150e+01 -1.327500e+00 3.616000e+00
      vertex -1.626150e+01 -2.338650e+01 0.000000e+00
      vertex -1.626150e+01 -2.489500e+00 4.392000e+00
    endloop
  endfacet
  facet normal -1.000000e+00 3.061617e-16 -6.123234e-17
    outer loop
      vertex -1.626150e+01 -3.265500e+00 5.554000e+00
      vertex -1.626150e+01 -2.489500e+00 4.392000e+00
      vertex -1.626150e+01 -2.338650e+01 0.000000e+00
    endloop
  endfacet
  facet normal 1.000000e+00 -3.061617e-16 6.123234e-17
    outer loop
      vertex -8.760500e+00 1.196850e+01 7.010000e+00
      vertex -8.760500e+00 2.338550e+01 1.193300e+01
      vertex -8.760500e+00 2.686450e+01 3.497800e+01
    endloop
  endfacet
  facet normal -3.061617e-16 -1.000000e+00 -2.465190e-32
    outer loop
      vertex 1.919350e+01 -2.679650e+01 5.538000e+00
      vertex 2.079550e+01 -2.679650e+01 3.552714e-15
      vertex 1.946950e+01 -2.679650e+01 6.924001e+00
    endloop
  endfacet
  facet normal -1.000000e+00 3.061617e-16 -6.123234e-17
    outer loop
      vertex -1.626150e+01 4.250028e-02 3.344000e+00
      vertex -1.626150e+01 -2.338650e+01 0.000000e+00
      vertex -1.626150e+01 -1.327500e+00 3.616000e+00
    endloop
  endfacet
  facet normal -3.061617e-16 -1.000000e+00 -2.465190e-32
    outer loop
      vertex 1.919350e+01 -2.679650e+01 8.309000e+00
      vertex 1.946950e+01 -2.679650e+01 6.924001e+00
      vertex 2.079550e+01 -2.679650e+01 1.193300e+01
    endloop
  endfacet
  facet normal -3.061617e-16 -1.000000e+00 -2.465190e-32
    outer loop
      vertex 1.840850e+01 -2.679650e+01 9.483001e+00
      vertex 1.919350e+01 -2.679650e+01 8.309000e+00
      vertex 2.079550e+01 -2.679650e+01 1.193300e+01
    endloop
  endfacet
  facet normal -3.061617e-16 -1.000000e+00 -2.465190e-32
    outer loop
      vertex 2.079550e+01 -2.679650e+01 1.193300e+01
      vertex 1.492870e+01 -2.679650e+01 1.193300e+01
      vertex 1.723450e+01 -2.679650e+01 1.026800e+01
    endloop
  endfacet
  facet normal -3.061617e-16 -1.000000e+00 -2.465190e-32
    outer loop
      vertex 1.723450e+01 -2.679650e+01 1.026800e+01
      vertex 1.840850e+01 -2.679650e+01 9.483001e+00
      vertex 2.079550e+01 -2.679650e+01 1.193300e+01
    endloop
  endfacet
  facet normal 1.000000e+00 -3.061617e-16 6.123234e-17
    outer loop
      vertex -8.760500e+00 1.411500e+00 1.023100e+01
      vertex -8.760500e+00 2.573500e+00 9.455000e+00
      vertex -8.760500e+00 2.686450e+01 3.497800e+01
    endloop
  endfacet
  facet normal 1.000000e+00 -3.061617e-16 6.123234e-17
    outer loop
      vertex -8.760500e+00 2.573500e+00 9.455000e+00
      vertex -8.760500e+00 3.349500e+00 8.293000e+00
      vertex -8.760500e+00 2.686450e+01 3.497800e+01
    endloop
  endfacet
  facet normal 1.000000e+00 -3.061617e-16 6.123234e-17
    outer loop
      vertex -8.760500e+00 5.488500e+00 7.010000e+00
      vertex -8.760500e+00 2.686450e+01 3.497800e+01
      vertex -8.760500e+00 3.349500e+00 8.293000e+00
    endloop
  endfacet
  facet normal 1.000000e+00 -3.061617e-16 6.123234e-17
    outer loop
      vertex -8.760500e+00 3.621500e+00 6.924001e+00
      vertex -8.760500e+00 5.488500e+00 7.010000e+00
      vertex -8.760500e+00 3.349500e+00 8.293000e+00
    endloop
  endfacet
  facet normal 1.000000e+00 -3.061617e-16 6.123234e-17
    outer loop
      vertex -8.760500e+00 3.621500e+00 6.924001e+00
      vertex -8.760500e+00 3.349500e+00 5.554000e+00
      vertex -8.760500e+00 5.488500e+00 7.010000e+00
    endloop
  endfacet
  facet normal 1.000000e+00 -3.061617e-16 6.123234e-17
    outer loop
      vertex -8.760500e+00 5.488500e+00 7.010000e+00
      vertex -8.760500e+00 1.196850e+01 7.010000e+00
      vertex -8.760500e+00 2.686450e+01 3.497800e+01
    endloop
  endfacet
  facet normal -3.061617e-16 -1.000000e+00 -2.465190e-32
    outer loop
      vertex 1.584950e+01 -2.679650e+01 1.054300e+01
      vertex 1.723450e+01 -2.679650e+01 1.026800e+01
      vertex 1.492870e+01 -2.679650e+01 1.193300e+01
    endloop
  endfacet
  facet normal -1.000000e+00 3.061617e-16 -6.123234e-17
    outer loop
      vertex -1.626150e+01 2.338550e+01 1.193300e+01
      vertex -1.626150e+01 2.338550e+01 0.000000e+00
      vertex -1.626150e+01 3.621500e+00 6.924001e+00
    endloop
  endfacet
  facet normal 1.000000e+00 -3.061617e-16 6.123234e-17
    outer loop
      vertex -8.760500e+00 -3.265500e+00 5.554000e+00
      vertex -8.760500e+00 -5.762500e+00 9.430008e-01
      vertex -8.760500e+00 -2.489500e+00 4.392000e+00
    endloop
  endfacet
  facet normal -3.061617e-16 -1.000000e+00 -2.465190e-32
    outer loop
      vertex -8.760500e+00 -2.679650e+01 1.193300e+01
      vertex 1.329050e+01 -2.679650e+01 9.483001e+00
      vertex 1.492870e+01 -2.679650e+01 1.193300e+01
    endloop
  endfacet
  facet normal -3.061617e-16 -1.000000e+00 -2.465190e-32
    outer loop
      vertex 1.446450e+01 -2.679650e+01 1.026800e+01
      vertex 1.584950e+01 -2.679650e+01 1.054300e+01
      vertex 1.492870e+01 -2.679650e+01 1.193300e+01
    endloop
  endfacet
  facet normal 1.000000e+00 -3.061617e-16 6.123234e-17
    outer loop
      vertex -8.760500e+00 2.338550e+01 1.193300e+01
      vertex -8.760500e+00 1.196850e+01 7.010000e+00
      vertex -8.760500e+00 2.338550e+01 0.000000e+00
    endloop
  endfacet
  facet normal 1.000000e+00 -3.061617e-16 6.123234e-17
    outer loop
      vertex -8.760500e+00 1.196850e+01 9.430008e-01
      vertex -8.760500e+00 2.338550e+01 0.000000e+00
      vertex -8.760500e+00 1.196850e+01 7.010000e+00
    endloop
  endfacet
  facet normal -1.000000e+00 3.061617e-16 -6.123234e-17
    outer loop
      vertex -1.626150e+01 -1.327500e+00 1.023100e+01
      vertex -1.626150e+01 -2.686450e+01 1.465900e+01
      vertex -1.626150e+01 4.250028e-02 1.050300e+01
    endloop
  endfacet
  facet normal 1.000000e+00 -3.061617e-16 6.123234e-17
    outer loop
      vertex -8.760500e+00 -1.327500e+00 3.616000e+00
      vertex -8.760500e+00 -2.489500e+00 4.392000e+00
      vertex -8.760500e+00 -5.762500e+00 9.430008e-01
    endloop
  endfacet
  facet normal -3.061617e-16 -1.000000e+00 -2.465190e-32
    outer loop
      vertex 1.446450e+01 -2.679650e+01 1.026800e+01
      vertex 1.492870e+01 -2.679650e+01 1.193300e+01
      vertex 1.329050e+01 -2.679650e+01 9.483001e+00
    endloop
  endfacet
  facet normal 1.000000e+00 -3.061617e-16 6.123234e-17
    outer loop
      vertex -8.760500e+00 2.686450e+01 3.497800e+01
      vertex -8.760500e+00 2.679550e+01 1.193300e+01
      vertex -8.760500e+00 2.686450e+01 0.000000e+00
    endloop
  endfacet
  facet normal 1.000000e+00 -3.061617e-16 6.123234e-17
    outer loop
      vertex -8.760500e+00 2.679550e+01 0.000000e+00
      vertex -8.760500e+00 2.686450e+01 0.000000e+00
      vertex -8.760500e+00 2.679550e+01 1.193300e+01
    endloop
  endfacet
  facet normal -1.000000e+00 3.061617e-16 -6.123234e-17
    outer loop
      vertex -1.626150e+01 4.250028e-02 1.050300e+01
      vertex -1.626150e+01 2.686450e+01 1.465900e+01
      vertex -1.626150e+01 1.411500e+00 1.023100e+01
    endloop
  endfacet
  facet normal -1.000000e+00 3.061617e-16 -6.123234e-17
    outer loop
      vertex -1.626150e+01 -2.489500e+00 9.455000e+00
      vertex -1.626150e+01 -2.338650e+01 1.193300e+01
      vertex -1.626150e+01 -1.327500e+00 1.023100e+01
    endloop
  endfacet
  facet normal -1.000000e+00 3.061617e-16 -6.123234e-17
    outer loop
      vertex -1.626150e+01 2.686450e+01 1.465900e+01
      vertex -1.626150e+01 4.250028e-02 1.050300e+01
      vertex -1.626150e+01 -2.686450e+01 1.465900e+01
    endloop
  endfacet
  facet normal -3.061617e-16 -1.000000e+00 -2.465190e-32
    outer loop
      vertex 1.250550e+01 -2.679650e+01 8.309000e+00
      vertex 1.329050e+01 -2.679650e+01 9.483001e+00
      vertex -8.760500e+00 -2.679650e+01 1.193300e+01
    endloop
  endfacet
  facet normal 1.000000e+00 -3.061617e-16 6.123234e-17
    outer loop
      vertex -8.760500e+00 5.488500e+00 7.010000e+00
      vertex -8.760500e+00 3.349500e+00 5.554000e+00
      vertex -8.760500e+00 5.488500e+00 9.430008e-01
    endloop
  endfacet
  facet normal 1.000000e+00 -3.061617e-16 6.123234e-17
    outer loop
      vertex -8.760500e+00 3.349500e+00 5.554000e+00
      vertex -8.760500e+00 2.573500e+00 4.392000e+00
      vertex -8.760500e+00 5.488500e+00 9.430008e-01
    endloop
  endfacet
  facet normal 1.000000e+00 -3.061617e-16 6.123234e-17
    outer loop
      vertex -8.760500e+00 1.411500e+00 3.616000e+00
      vertex -8.760500e+00 4.250028e-02 3.344000e+00
      vertex -8.760500e+00 5.488500e+00 9.430008e-01
    endloop
  endfacet
  facet normal 1.000000e+00 -3.061617e-16 6.123234e-17
    outer loop
      vertex -8.760500e+00 -5.762500e+00 9.430008e-01
      vertex -8.760500e+00 5.488500e+00 9.430008e-01
      vertex -8.760500e+00 4.250028e-02 3.344000e+00
    endloop
  endfacet
  facet normal 1.000000e+00 -3.061617e-16 6.123234e-17
    outer loop
      vertex -8.760500e+00 4.250028e-02 3.344000e+00
      vertex -8.760500e+00 -1.327500e+00 3.616000e+00
      vertex -8.760500e+00 -5.762500e+00 9.430008e-01
    endloop
  endfacet
  facet normal 1.000000e+00 -3.061617e-16 6.123234e-17
    outer loop
      vertex -8.760500e+00 2.573500e+00 4.392000e+00
      vertex -8.760500e+00 1.411500e+00 3.616000e+00
      vertex -8.760500e+00 5.488500e+00 9.430008e-01
    endloop
  endfacet
  facet normal -1.000000e+00 3.061617e-16 -6.123234e-17
    outer loop
      vertex -1.626150e+01 2.338550e+01 1.193300e+01
      vertex -1.626150e+01 2.686450e+01 1.465900e+01
      vertex -1.626150e+01 2.679550e+01 1.193300e+01
    endloop
  endfacet
  facet normal -1.000000e+00 3.061617e-16 -6.123234e-17
    outer loop
      vertex -1.626150e+01 2.573500e+00 9.455000e+00
      vertex -1.626150e+01 1.411500e+00 1.023100e+01
      vertex -1.626150e+01 2.338550e+01 1.193300e+01
    endloop
  endfacet
  facet normal -3.061617e-16 -1.000000e+00 -2.465190e-32
    outer loop
      vertex 1.222950e+01 -2.679650e+01 6.924001e+00
      vertex -8.760500e+00 -2.679650e+01 0.000000e+00
      vertex 1.250550e+01 -2.679650e+01 5.538000e+00
    endloop
  endfacet
  facet normal 1.000000e+00 -3.061617e-16 6.123234e-17
    outer loop
      vertex -8.760500e+00 2.338550e+01 0.000000e+00
      vertex -8.760500e+00 1.196850e+01 9.430008e-01
      vertex -8.760500e+00 5.488500e+00 9.430008e-01
    endloop
  endfacet
  facet normal 1.000000e+00 -3.061617e-16 6.123234e-17
    outer loop
      vertex -8.760500e+00 -5.762500e+00 9.430008e-01
      vertex -8.760500e+00 -2.338650e+01 0.000000e+00
      vertex -8.760500e+00 5.488500e+00 9.430008e-01
    endloop
  endfacet
  facet normal -1.000000e+00 3.061617e-16 -6.123234e-17
    outer loop
      vertex -1.626150e+01 3.349500e+00 5.554000e+00
      vertex -1.626150e+01 3.621500e+00 6.924001e+00
      vertex -1.626150e+01 2.338550e+01 0.000000e+00
    endloop
  endfacet
  facet normal -1.000000e+00 3.061617e-16 -6.123234e-17
    outer loop
      vertex -1.626150e+01 2.338550e+01 1.193300e+01
      vertex -1.626150e+01 3.621500e+00 6.924001e+00
      vertex -1.626150e+01 3.349500e+00 8.293000e+00
    endloop
  endfacet
  facet normal -1.000000e+00 3.061617e-16 -6.123234e-17
    outer loop
      vertex -1.626150e+01 2.338550e+01 1.193300e+01
      vertex -1.626150e+01 3.349500e+00 8.293000e+00
      vertex -1.626150e+01 2.573500e+00 9.455000e+00
    endloop
  endfacet
  facet normal -1.000000e+00 3.061617e-16 -6.123234e-17
    outer loop
      vertex -1.626150e+01 2.686450e+01 1.465900e+01
      vertex -1.626150e+01 2.338550e+01 1.193300e+01
      vertex -1.626150e+01 1.411500e+00 1.023100e+01
    endloop
  endfacet
  facet normal -3.061617e-16 -1.000000e+00 -2.465190e-32
    outer loop
      vertex 1.329050e+01 -2.679650e+01 4.364000e+00
      vertex -8.760500e+00 -2.679650e+01 0.000000e+00
      vertex 1.446450e+01 -2.679650e+01 3.580000e+00
    endloop
  endfacet
  facet normal -3.061617e-16 -1.000000e+00 -2.465190e-32
    outer loop
      vertex 1.919350e+01 2.338550e+01 8.309000e+00
      vertex 1.946950e+01 2.338550e+01 6.924001e+00
      vertex 2.079550e+01 2.338550e+01 1.193300e+01
    endloop
  endfacet
  facet normal -3.061617e-16 -1.000000e+00 -2.465190e-32
    outer loop
      vertex 1.329050e+01 -2.679650e+01 4.364000e+00
      vertex 1.250550e+01 -2.679650e+01 5.538000e+00
      vertex -8.760500e+00 -2.679650e+01 0.000000e+00
    endloop
  endfacet
  facet normal -3.061617e-16 -1.000000e+00 -2.465190e-32
    outer loop
      vertex 1.250550e+01 -2.679650e+01 8.309000e+00
      vertex -8.760500e+00 -2.679650e+01 1.193300e+01
      vertex 1.222950e+01 -2.679650e+01 6.924001e+00
    endloop
  endfacet
  facet normal -3.061617e-16 -1.000000e+00 -2.465190e-32
    outer loop
      vertex -8.760500e+00 -2.679650e+01 0.000000e+00
      vertex 1.222950e+01 -2.679650e+01 6.924001e+00
      vertex -8.760500e+00 -2.679650e+01 1.193300e+01
    endloop
  endfacet
  facet normal 1.000000e+00 -3.061617e-16 6.123234e-17
    outer loop
      vertex -8.760500e+00 -5.762500e+00 7.010000e+00
      vertex -8.760500e+00 -3.265500e+00 8.293000e+00
      vertex -8.760500e+00 -2.686450e+01 3.497800e+01
    endloop
  endfacet
  facet normal -3.061617e-16 -1.000000e+00 -2.465190e-32
    outer loop
      vertex 1.840850e+01 2.338550e+01 9.483001e+00
      vertex 1.919350e+01 2.338550e+01 8.309000e+00
      vertex 2.079550e+01 2.338550e+01 1.193300e+01
    endloop
  endfacet
  facet normal 1.000000e+00 -3.061617e-16 6.123234e-17
    outer loop
      vertex -8.760500e+00 -2.489500e+00 9.455000e+00
      vertex -8.760500e+00 -1.327500e+00 1.023100e+01
      vertex -8.760500e+00 -2.686450e+01 3.497800e+01
    endloop
  endfacet
  facet normal 1.000000e+00 -3.061617e-16 6.123234e-17
    outer loop
      vertex -8.760500e+00 -1.327500e+00 1.023100e+01
      vertex -8.760500e+00 4.250028e-02 1.050300e+01
      vertex -8.760500e+00 -2.686450e+01 3.497800e+01
    endloop
  endfacet
  facet normal -3.061617e-16 -1.000000e+00 -2.465190e-32
    outer loop
      vertex 1.723450e+01 2.338550e+01 1.026800e+01
      vertex 1.840850e+01 2.338550e+01 9.483001e+00
      vertex 2.079550e+01 2.338550e+01 1.193300e+01
    endloop
  endfacet
  facet normal -3.061617e-16 -1.000000e+00 -2.465190e-32
    outer loop
      vertex 2.079550e+01 -2.679650e+01 1.193300e+01
      vertex 1.946950e+01 -2.679650e+01 6.924001e+00
      vertex 2.079550e+01 -2.679650e+01 3.552714e-15
    endloop
  endfacet
  facet normal -3.061617e-16 -1.000000e+00 -2.465190e-32
    outer loop
      vertex 2.079550e+01 -2.679650e+01 3.552714e-15
      vertex 1.723450e+01 -2.679650e+01 3.580000e+00
      vertex 1.584950e+01 -2.679650e+01 3.304000e+00
    endloop
  endfacet
  facet normal -3.061617e-16 -1.000000e+00 -2.465190e-32
    outer loop
      vertex 1.584950e+01 -2.679650e+01 3.304000e+00
      vertex 1.446450e+01 -2.679650e+01 3.580000e+00
      vertex 2.079550e+01 -2.679650e+01 3.552714e-15
    endloop
  endfacet
  facet normal -3.061617e-16 -1.000000e+00 -2.465190e-32
    outer loop
      vertex 2.079550e+01 -2.679650e+01 3.552714e-15
      vertex 1.446450e+01 -2.679650e+01 3.580000e+00
      vertex -8.760500e+00 -2.679650e+01 0.000000e+00
    endloop
  endfacet
  facet normal -1.000000e+00 3.061617e-16 -6.123234e-17
    outer loop
      vertex -1.626150e+01 1.411500e+00 3.616000e+00
      vertex -1.626150e+01 2.338550e+01 0.000000e+00
      vertex -1.626150e+01 4.250028e-02 3.344000e+00
    endloop
  endfacet
  facet normal -1.000000e+00 3.061617e-16 -6.123234e-17
    outer loop
      vertex -1.626150e+01 2.573500e+00 4.392000e+00
      vertex -1.626150e+01 2.338550e+01 0.000000e+00
      vertex -1.626150e+01 1.411500e+00 3.616000e+00
    endloop
  endfacet
  facet normal -1.000000e+00 3.061617e-16 -6.123234e-17
    outer loop
      vertex -1.626150e+01 2.573500e+00 4.392000e+00
      vertex -1.626150e+01 3.349500e+00 5.554000e+00
      vertex -1.626150e+01 2.338550e+01 0.000000e+00
    endloop
  endfacet
  facet normal -1.000000e+00 3.061617e-16 -6.123234e-17
    outer loop
      vertex -1.626150e+01 2.338550e+01 0.000000e+00
      vertex -1.626150e+01 -2.338650e+01 0.000000e+00
      vertex -1.626150e+01 4.250028e-02 3.344000e+00
    endloop
  endfacet
  facet normal -1.000000e+00 3.061617e-16 -6.123234e-17
    outer loop
      vertex -1.626150e+01 2.679550e+01 0.000000e+00
      vertex -1.626150e+01 2.679550e+01 1.193300e+01
      vertex -1.626150e+01 2.686450e+01 0.000000e+00
    endloop
  endfacet
  facet normal -1.000000e+00 3.061617e-16 -6.123234e-17
    outer loop
      vertex -1.626150e+01 2.686450e+01 1.465900e+01
      vertex -1.626150e+01 2.686450e+01 0.000000e+00
      vertex -1.626150e+01 2.679550e+01 1.193300e+01
    endloop
  endfacet
  facet normal -3.061617e-16 -1.000000e+00 -2.465190e-32
    outer loop
      vertex 1.584950e+01 2.338550e+01 1.054300e+01
      vertex 1.723450e+01 2.338550e+01 1.026800e+01
      vertex 1.492870e+01 2.338550e+01 1.193300e+01
    endloop
  endfacet
  facet normal -3.061617e-16 -1.000000e+00 -2.465190e-32
    outer loop
      vertex 2.079550e+01 2.338550e+01 1.193300e+01
      vertex 1.492870e+01 2.338550e+01 1.193300e+01
      vertex 1.723450e+01 2.338550e+01 1.026800e+01
    endloop
  endfacet
  facet normal 1.000000e+00 -3.061617e-16 6.123234e-17
    outer loop
      vertex -8.760500e+00 -5.762500e+00 7.010000e+00
      vertex -8.760500e+00 -5.762500e+00 9.430008e-01
      vertex -8.760500e+00 -3.265500e+00 5.554000e+00
    endloop
  endfacet
  facet normal 1.000000e+00 -3.061617e-16 6.123234e-17
    outer loop
      vertex -8.760500e+00 -3.265500e+00 5.554000e+00
      vertex -8.760500e+00 -3.537500e+00 6.924001e+00
      vertex -8.760500e+00 -5.762500e+00 7.010000e+00
    endloop
  endfacet
  facet normal 1.000000e+00 -3.061617e-16 6.123234e-17
    outer loop
      vertex -8.760500e+00 -3.537500e+00 6.924001e+00
      vertex -8.760500e+00 -3.265500e+00 8.293000e+00
      vertex -8.760500e+00 -5.762500e+00 7.010000e+00
    endloop
  endfacet
  facet normal 1.000000e+00 -3.061617e-16 6.123234e-17
    outer loop
      vertex -8.760500e+00 -2.489500e+00 9.455000e+00
      vertex -8.760500e+00 -2.686450e+01 3.497800e+01
      vertex -8.760500e+00 -3.265500e+00 8.293000e+00
    endloop
  endfacet
  facet normal -3.061617e-16 -1.000000e+00 -2.465190e-32
    outer loop
      vertex 1.446450e+01 2.338550e+01 1.026800e+01
      vertex 1.584950e+01 2.338550e+01 1.054300e+01
      vertex 1.492870e+01 2.338550e+01 1.193300e+01
    endloop
  endfacet
  facet normal 1.000000e+00 -3.061617e-16 6.123234e-17
    outer loop
      vertex 2.079550e+01 -2.338650e+01 3.552714e-15
      vertex 2.079550e+01 -2.338650e+01 1.193300e+01
      vertex 2.079550e+01 -2.679650e+01 1.193300e+01
    endloop
  endfacet
  facet normal 1.000000e+00 -3.061617e-16 6.123234e-17
    outer loop
      vertex -8.760500e+00 -2.338650e+01 1.193300e+01
      vertex -8.760500e+00 -2.686450e+01 3.497800e+01
      vertex -8.760500e+00 -2.679650e+01 1.193300e+01
    endloop
  endfacet
  facet normal -3.061617e-16 -1.000000e+00 -2.465190e-32
    outer loop
      vertex 1.492870e+01 2.338550e+01 1.193300e+01
      vertex -8.760500e+00 2.338550e+01 1.193300e+01
      vertex 1.329050e+01 2.338550e+01 9.483001e+00
    endloop
  endfacet
  facet normal -3.061617e-16 -1.000000e+00 -2.465190e-32
    outer loop
      vertex 1.329050e+01 2.338550e+01 9.483001e+00
      vertex 1.446450e+01 2.338550e+01 1.026800e+01
      vertex 1.492870e+01 2.338550e+01 1.193300e+01
    endloop
  endfacet
  facet normal -1.000000e+00 3.061617e-16 -6.123234e-17
    outer loop
      vertex -1.626150e+01 -2.686450e+01 1.465900e+01
      vertex -1.626150e+01 -2.338650e+01 1.193300e+01
      vertex -1.626150e+01 -2.679650e+01 1.193300e+01
    endloop
  endfacet
  facet normal -1.000000e+00 3.061617e-16 -6.123234e-17
    outer loop
      vertex -1.626150e+01 -2.686450e+01 1.465900e+01
      vertex -1.626150e+01 -2.679650e+01 1.193300e+01
      vertex -1.626150e+01 -2.686450e+01 0.000000e+00
    endloop
  endfacet
  facet normal 1.000000e+00 -3.061617e-16 6.123234e-17
    outer loop
      vertex -8.760500e+00 -2.679650e+01 1.193300e+01
      vertex -8.760500e+00 -2.686450e+01 0.000000e+00
      vertex -8.760500e+00 -2.679650e+01 0.000000e+00
    endloop
  endfacet
  facet normal 1.000000e+00 -3.061617e-16 6.123234e-17
    outer loop
      vertex -8.760500e+00 -1.224250e+01 7.010000e+00
      vertex -8.760500e+00 -2.338650e+01 0.000000e+00
      vertex -8.760500e+00 -1.224250e+01 9.430008e-01
    endloop
  endfacet
  facet normal 1.000000e+00 -3.061617e-16 6.123234e-17
    outer loop
      vertex -8.760500e+00 -1.224250e+01 7.010000e+00
      vertex -8.760500e+00 -5.762500e+00 7.010000e+00
      vertex -8.760500e+00 -2.686450e+01 3.497800e+01
    endloop
  endfacet
  facet normal 1.000000e+00 -3.061617e-16 6.123234e-17
    outer loop
      vertex -8.760500e+00 -2.338650e+01 1.193300e+01
      vertex -8.760500e+00 -2.338650e+01 0.000000e+00
      vertex -8.760500e+00 -1.224250e+01 7.010000e+00
    endloop
  endfacet
  facet normal 1.000000e+00 -3.061617e-16 6.123234e-17
    outer loop
      vertex -8.760500e+00 -1.224250e+01 9.430008e-01
      vertex -8.760500e+00 -2.338650e+01 0.000000e+00
      vertex -8.760500e+00 -5.762500e+00 9.430008e-01
    endloop
  endfacet
  facet normal 1.000000e+00 -3.061617e-16 6.123234e-17
    outer loop
      vertex -8.760500e+00 2.338550e+01 0.000000e+00
      vertex -8.760500e+00 5.488500e+00 9.430008e-01
      vertex -8.760500e+00 -2.338650e+01 0.000000e+00
    endloop
  endfacet
  facet normal 1.000000e+00 -3.061617e-16 6.123234e-17
    outer loop
      vertex -8.760500e+00 -2.338650e+01 1.193300e+01
      vertex -8.760500e+00 -1.224250e+01 7.010000e+00
      vertex -8.760500e+00 -2.686450e+01 3.497800e+01
    endloop
  endfacet
  facet normal 1.000000e+00 -3.061617e-16 6.123234e-17
    outer loop
      vertex -8.760500e+00 -2.686450e+01 0.000000e+00
      vertex -8.760500e+00 -2.679650e+01 1.193300e+01
      vertex -8.760500e+00 -2.686450e+01 3.497800e+01
    endloop
  endfacet
  facet normal 3.061617e-16 1.000000e+00 2.465190e-32
    outer loop
      vertex -1.626150e+01 2.686450e+01 1.465900e+01
      vertex -8.760500e+00 2.686450e+01 0.000000e+00
      vertex -1.626150e+01 2.686450e+01 0.000000e+00
    endloop
  endfacet
  facet normal 3.061617e-16 1.000000e+00 2.465190e-32
    outer loop
      vertex -1.626150e+01 2.686450e+01 1.465900e+01
      vertex -1.673716e+01 2.686450e+01 1.534101e+01
      vertex -8.760500e+00 2.686450e+01 3.497800e+01
    endloop
  endfacet
  facet normal 3.061617e-16 1.000000e+00 2.465190e-32
    outer loop
      vertex -8.760500e+00 2.686450e+01 0.000000e+00
      vertex -1.626150e+01 2.686450e+01 1.465900e+01
      vertex -8.760500e+00 2.686450e+01 3.497800e+01
    endloop
  endfacet
  facet normal -2.883592e-16 -9.808279e-01 -1.948760e-01
    outer loop
      vertex -1.626150e+01 3.621500e+00 6.924001e+00
      vertex -8.760500e+00 3.621500e+00 6.924001e+00
      vertex -1.626150e+01 3.349500e+00 8.293000e+00
    endloop
  endfacet
  facet normal -2.883592e-16 -9.808279e-01 -1.948760e-01
    outer loop
      vertex -8.760500e+00 3.349500e+00 8.293000e+00
      vertex -1.626150e+01 3.349500e+00 8.293000e+00
      vertex -8.760500e+00 3.621500e+00 6.924001e+00
    endloop
  endfacet
  facet normal -2.206010e-16 -8.316096e-01 -5.553606e-01
    outer loop
      vertex -8.760500e+00 2.573500e+00 9.455000e+00
      vertex -1.626150e+01 2.573500e+00 9.455000e+00
      vertex -1.626150e+01 3.349500e+00 8.293000e+00
    endloop
  endfacet
  facet normal -2.206010e-16 -8.316096e-01 -5.553606e-01
    outer loop
      vertex -8.760500e+00 2.573500e+00 9.455000e+00
      vertex -1.626150e+01 3.349500e+00 8.293000e+00
      vertex -8.760500e+00 3.349500e+00 8.293000e+00
    endloop
  endfacet
  facet normal 1.000000e+00 -3.061617e-16 6.123234e-17
    outer loop
      vertex 2.079550e+01 -2.679650e+01 1.193300e+01
      vertex 2.079550e+01 -2.679650e+01 3.552714e-15
      vertex 2.079550e+01 -2.338650e+01 3.552714e-15
    endloop
  endfacet
  facet normal 3.061617e-16 1.000000e+00 2.465190e-32
    outer loop
      vertex 1.919350e+01 -2.338650e+01 5.538000e+00
      vertex 2.079550e+01 -2.338650e+01 3.552714e-15
      vertex 1.840850e+01 -2.338650e+01 4.364000e+00
    endloop
  endfacet
  facet normal 3.061617e-16 1.000000e+00 2.465190e-32
    outer loop
      vertex 1.723450e+01 -2.338650e+01 3.580000e+00
      vertex 1.840850e+01 -2.338650e+01 4.364000e+00
      vertex 2.079550e+01 -2.338650e+01 3.552714e-15
    endloop
  endfacet
  facet normal -3.061617e-16 -1.000000e+00 -2.465190e-32
    outer loop
      vertex 1.250550e+01 2.338550e+01 8.309000e+00
      vertex 1.329050e+01 2.338550e+01 9.483001e+00
      vertex -8.760500e+00 2.338550e+01 1.193300e+01
    endloop
  endfacet
  facet normal 3.061617e-16 1.000000e+00 2.465190e-32
    outer loop
      vertex 1.946950e+01 -2.338650e+01 6.924001e+00
      vertex 2.079550e+01 -2.338650e+01 3.552714e-15
      vertex 1.919350e+01 -2.338650e+01 5.538000e+00
    endloop
  endfacet
  facet normal 3.061617e-16 1.000000e+00 2.465190e-32
    outer loop
      vertex 1.919350e+01 -2.338650e+01 8.309000e+00
      vertex 2.079550e+01 -2.338650e+01 1.193300e+01
      vertex 1.946950e+01 -2.338650e+01 6.924001e+00
    endloop
  endfacet
  facet normal 3.061617e-16 1.000000e+00 2.465190e-32
    outer loop
      vertex 2.079550e+01 -2.338650e+01 3.552714e-15
      vertex 1.946950e+01 -2.338650e+01 6.924001e+00
      vertex 2.079550e+01 -2.338650e+01 1.193300e+01
    endloop
  endfacet
  facet normal -3.061617e-16 -1.000000e+00 -2.465190e-32
    outer loop
      vertex 1.250550e+01 2.338550e+01 5.538000e+00
      vertex -8.760500e+00 2.338550e+01 0.000000e+00
      vertex 1.329050e+01 2.338550e+01 4.364000e+00
    endloop
  endfacet
  facet normal -3.061617e-16 -1.000000e+00 -2.465190e-32
    outer loop
      vertex 1.446450e+01 2.338550e+01 3.580000e+00
      vertex 1.329050e+01 2.338550e+01 4.364000e+00
      vertex -8.760500e+00 2.338550e+01 0.000000e+00
    endloop
  endfacet
  facet normal -3.061617e-16 -1.000000e+00 -2.465190e-32
    outer loop
      vertex -8.760500e+00 2.338550e+01 0.000000e+00
      vertex 2.079550e+01 2.338550e+01 3.552714e-15
      vertex 1.446450e+01 2.338550e+01 3.580000e+00
    endloop
  endfacet
  facet normal -3.061617e-16 -1.000000e+00 -2.465190e-32
    outer loop
      vertex -8.760500e+00 2.338550e+01 0.000000e+00
      vertex 1.250550e+01 2.338550e+01 5.538000e+00
      vertex 1.222950e+01 2.338550e+01 6.924001e+00
    endloop
  endfacet
  facet normal -3.061617e-16 -1.000000e+00 -2.465190e-32
    outer loop
      vertex 1.250550e+01 2.338550e+01 8.309000e+00
      vertex -8.760500e+00 2.338550e+01 1.193300e+01
      vertex 1.222950e+01 2.338550e+01 6.924001e+00
    endloop
  endfacet
  facet normal -3.061617e-16 -1.000000e+00 -2.465190e-32
    outer loop
      vertex -8.760500e+00 2.338550e+01 0.000000e+00
      vertex 1.222950e+01 2.338550e+01 6.924001e+00
      vertex -8.760500e+00 2.338550e+01 1.193300e+01
    endloop
  endfacet
  facet normal -3.061617e-16 -1.000000e+00 -2.465190e-32
    outer loop
      vertex 2.079550e+01 2.338550e+01 3.552714e-15
      vertex 1.723450e+01 2.338550e+01 3.580000e+00
      vertex 1.584950e+01 2.338550e+01 3.304000e+00
    endloop
  endfacet
  facet normal -3.061617e-16 -1.000000e+00 -2.465190e-32
    outer loop
      vertex 1.584950e+01 2.338550e+01 3.304000e+00
      vertex 1.446450e+01 2.338550e+01 3.580000e+00
      vertex 2.079550e+01 2.338550e+01 3.552714e-15
    endloop
  endfacet
  facet normal 1.000000e+00 -3.061617e-16 6.123234e-17
    outer loop
      vertex 2.079550e+01 2.679550e+01 3.552714e-15
      vertex 2.079550e+01 2.679550e+01 1.193300e+01
      vertex 2.079550e+01 2.338550e+01 3.552714e-15
    endloop
  endfacet
  facet normal 1.000000e+00 -3.061617e-16 6.123234e-17
    outer loop
      vertex 2.079550e+01 2.338550e+01 1.193300e+01
      vertex 2.079550e+01 2.338550e+01 3.552714e-15
      vertex 2.079550e+01 2.679550e+01 1.193300e+01
    endloop
  endfacet
  facet normal 3.061617e-16 1.000000e+00 2.465190e-32
    outer loop
      vertex 1.723450e+01 2.679550e+01 3.580000e+00
      vertex 1.840850e+01 2.679550e+01 4.364000e+00
      vertex 2.079550e+01 2.679550e+01 3.552714e-15
    endloop
  endfacet
  facet normal 3.061617e-16 1.000000e+00 2.465190e-32
    outer loop
      vertex 2.079550e+01 2.679550e+01 1.193300e+01
      vertex 2.079550e+01 2.679550e+01 3.552714e-15
      vertex 1.946950e+01 2.679550e+01 6.924001e+00
    endloop
  endfacet
  facet normal 3.061617e-16 1.000000e+00 2.465190e-32
    outer loop
      vertex 2.079550e+01 2.679550e+01 3.552714e-15
      vertex 1.840850e+01 2.679550e+01 4.364000e+00
      vertex 1.919350e+01 2.679550e+01 5.538000e+00
    endloop
  endfacet
  facet normal 3.061617e-16 1.000000e+00 2.465190e-32
    outer loop
      vertex 1.919350e+01 2.679550e+01 8.309000e+00
      vertex 2.079550e+01 2.679550e+01 1.193300e+01
      vertex 1.946950e+01 2.679550e+01 6.924001e+00
    endloop
  endfacet
  facet normal 3.061617e-16 1.000000e+00 2.465190e-32
    outer loop
      vertex 1.840850e+01 2.679550e+01 9.483001e+00
      vertex 2.079550e+01 2.679550e+01 1.193300e+01
      vertex 1.919350e+01 2.679550e+01 8.309000e+00
    endloop
  endfacet
  facet normal 3.061617e-16 1.000000e+00 2.465190e-32
    outer loop
      vertex 1.919350e+01 2.679550e+01 5.538000e+00
      vertex 1.946950e+01 2.679550e+01 6.924001e+00
      vertex 2.079550e+01 2.679550e+01 3.552714e-15
    endloop
  endfacet
  facet normal 3.061617e-16 1.000000e+00 2.465190e-32
    outer loop
      vertex 1.723450e+01 2.679550e+01 1.026800e+01
      vertex 2.079550e+01 2.679550e+01 1.193300e+01
      vertex 1.840850e+01 2.679550e+01 9.483001e+00
    endloop
  endfacet
  facet normal 3.061617e-16 1.000000e+00 2.465190e-32
    outer loop
      vertex 1.584950e+01 2.679550e+01 1.054300e+01
      vertex 2.079550e+01 2.679550e+01 1.193300e+01
      vertex 1.723450e+01 2.679550e+01 1.026800e+01
    endloop
  endfacet
  facet normal 3.061617e-16 1.000000e+00 2.465190e-32
    outer loop
      vertex 1.446450e+01 2.679550e+01 1.026800e+01
      vertex -8.760500e+00 2.679550e+01 1.193300e+01
      vertex 1.584950e+01 2.679550e+01 1.054300e+01
    endloop
  endfacet
  facet normal 3.061617e-16 1.000000e+00 2.465190e-32
    outer loop
      vertex 1.329050e+01 2.679550e+01 9.483001e+00
      vertex -8.760500e+00 2.679550e+01 1.193300e+01
      vertex 1.446450e+01 2.679550e+01 1.026800e+01
    endloop
  endfacet
  facet normal 3.061617e-16 1.000000e+00 2.465190e-32
    outer loop
      vertex 2.079550e+01 2.679550e+01 1.193300e+01
      vertex 1.584950e+01 2.679550e+01 1.054300e+01
      vertex -8.760500e+00 2.679550e+01 1.193300e+01
    endloop
  endfacet
  facet normal 3.061617e-16 1.000000e+00 2.465190e-32
    outer loop
      vertex 1.250550e+01 2.679550e+01 8.309000e+00
      vertex -8.760500e+00 2.679550e+01 1.193300e+01
      vertex 1.329050e+01 2.679550e+01 9.483001e+00
    endloop
  endfacet
  facet normal 3.061617e-16 1.000000e+00 2.465190e-32
    outer loop
      vertex -8.760500e+00 2.679550e+01 0.000000e+00
      vertex -8.760500e+00 2.679550e+01 1.193300e+01
      vertex 1.222950e+01 2.679550e+01 6.924001e+00
    endloop
  endfacet
  facet normal 3.061617e-16 1.000000e+00 2.465190e-32
    outer loop
      vertex 1.329050e+01 2.679550e+01 4.364000e+00
      vertex -8.760500e+00 2.679550e+01 0.000000e+00
      vertex 1.250550e+01 2.679550e+01 5.538000e+00
    endloop
  endfacet
  facet normal 3.061617e-16 1.000000e+00 2.465190e-32
    outer loop
      vertex 1.222950e+01 2.679550e+01 6.924001e+00
      vertex 1.250550e+01 2.679550e+01 5.538000e+00
      vertex -8.760500e+00 2.679550e+01 0.000000e+00
    endloop
  endfacet
  facet normal 3.061617e-16 1.000000e+00 2.465190e-32
    outer loop
      vertex 1.446450e+01 2.679550e+01 3.580000e+00
      vertex -8.760500e+00 2.679550e+01 0.000000e+00
      vertex 1.329050e+01 2.679550e+01 4.364000e+00
    endloop
  endfacet
  facet normal -1.000000e+00 3.061617e-16 -6.123234e-17
    outer loop
      vertex -1.626150e+01 -2.338650e+01 0.000000e+00
      vertex -1.626150e+01 -2.338650e+01 1.193300e+01
      vertex -1.626150e+01 -3.537500e+00 6.924001e+00
    endloop
  endfacet
  facet normal -1.000000e+00 3.061617e-16 -6.123234e-17
    outer loop
      vertex -1.626150e+01 -3.265500e+00 5.554000e+00
      vertex -1.626150e+01 -2.338650e+01 0.000000e+00
      vertex -1.626150e+01 -3.537500e+00 6.924001e+00
    endloop
  endfacet
  facet normal -1.000000e+00 3.061617e-16 -6.123234e-17
    outer loop
      vertex -1.626150e+01 -3.265500e+00 8.293000e+00
      vertex -1.626150e+01 -3.537500e+00 6.924001e+00
      vertex -1.626150e+01 -2.338650e+01 1.193300e+01
    endloop
  endfacet
  facet normal -1.000000e+00 3.061617e-16 -6.123234e-17
    outer loop
      vertex -1.626150e+01 -2.686450e+01 1.465900e+01
      vertex -1.626150e+01 -1.327500e+00 1.023100e+01
      vertex -1.626150e+01 -2.338650e+01 1.193300e+01
    endloop
  endfacet
  facet normal -1.000000e+00 3.061617e-16 -6.123234e-17
    outer loop
      vertex -1.626150e+01 -2.686450e+01 0.000000e+00
      vertex -1.626150e+01 -2.679650e+01 1.193300e+01
      vertex -1.626150e+01 -2.679650e+01 0.000000e+00
    endloop
  endfacet
  facet normal -3.061617e-16 -1.000000e+00 -2.465190e-32
    outer loop
      vertex -8.760500e+00 -2.686450e+01 3.497800e+01
      vertex -1.626150e+01 -2.686450e+01 1.465900e+01
      vertex -8.760500e+00 -2.686450e+01 0.000000e+00
    endloop
  endfacet
  facet normal -3.061617e-16 -1.000000e+00 -2.465190e-32
    outer loop
      vertex -1.626150e+01 -2.686450e+01 0.000000e+00
      vertex -8.760500e+00 -2.686450e+01 0.000000e+00
      vertex -1.626150e+01 -2.686450e+01 1.465900e+01
    endloop
  endfacet
  facet normal -6.123234e-17 -5.904906e-33 1.000000e+00
    outer loop
      vertex -8.760500e+00 -2.679650e+01 1.193300e+01
      vertex 1.492870e+01 -2.679650e+01 1.193300e+01
      vertex -8.760500e+00 -2.338650e+01 1.193300e+01
    endloop
  endfacet
  facet normal -6.123234e-17 -5.904906e-33 1.000000e+00
    outer loop
      vertex 2.079550e+01 -2.679650e+01 1.193300e+01
      vertex 2.079550e+01 -2.338650e+01 1.193300e+01
      vertex 1.492870e+01 -2.679650e+01 1.193300e+01
    endloop
  endfacet
  facet normal -6.123234e-17 -5.904906e-33 1.000000e+00
    outer loop
      vertex 2.079550e+01 -2.338650e+01 1.193300e+01
      vertex -8.760500e+00 -2.338650e+01 1.193300e+01
      vertex 1.492870e+01 -2.679650e+01 1.193300e+01
    endloop
  endfacet
endsolid Default
